<svg viewBox="0 0 590 600" xmlns="http://www.w3.org/2000/svg"><path d="m294.68 279.79-163.27-127.57c40.3-51.58 97.82-79.63 163.27-79.63z" fill="#3887c1" stroke="#fff" stroke-linecap="round" stroke-linejoin="round" stroke-width="6"/><path d="m294.68 279.79v-207.2c114.43 0 207.2 92.76 207.2 207.2s-92.77 207.21-207.2 207.21-207.19-92.78-207.19-207.21c0-49 13.77-89 43.92-127.57z" fill="#00306e" stroke="#fff" stroke-linecap="round" stroke-linejoin="round" stroke-width="6"/><circle cx="295.12" cy="279.25" fill="#fff" r="136.5"/><path d="m295.12 418.75c-76.92 0-139.5-62.58-139.5-139.5s62.58-139.5 139.5-139.5 139.5 62.58 139.5 139.5-62.62 139.5-139.5 139.5zm0-273c-73.61 0-133.5 59.89-133.5 133.5s59.89 133.5 133.5 133.5 133.5-59.88 133.5-133.5-59.88-133.5-133.5-133.5z" fill="#fff"/><path d="m246.61 288.08v4.43h-28.8v-4.43h3.62v-13.52h4.74v13.52h4.62v-17.85h-12v-4.44h27v4.44h-10.16v6h8.37v4.43h-8.36v7.37z" fill="#00306e"/><path d="m259.84 285.3c-.57-.78-1.35-1.78-2.16-2.78v11.08h-4.49v-10.08a24 24 0 0 1 -3.34 2.5 19 19 0 0 0 -2.09-4.37 21.22 21.22 0 0 0 8.18-7.9h-7v-4.09h4.21v-5.66h4.49v5.71h.69l.78-.15 2.53 1.65a30.48 30.48 0 0 1 -3.47 6.62c1.5 1.21 3.75 3.21 4.37 3.84zm18.34 2.93v4.46h-17.84v-4.46h6.83v-10.58h-5.52v-4.37h5.52v-9h4.68v9h5.55v4.37h-5.55v10.58z" fill="#00306e"/><path d="m302.86 288c2.59.78 5.31 1.72 7.27 2.44l-4 3.18a85 85 0 0 0 -10.23-3.62l2.87-2h-7.86l2.56 1.84a41.07 41.07 0 0 1 -9.71 3.72 35 35 0 0 0 -3.46-3.25 37.58 37.58 0 0 0 7.24-2.31h-4.15v-14.12h23.37v14.12zm2.84-14.94h-20.84v-8.26h20.84zm-17.79 4.64h14.09v-.81h-14.09zm0 3.62h14.09v-.81h-14.09zm0 3.66h14.09v-.85h-14.09zm12.95-16.73h-11.45v1.34h11.45z" fill="#00306e"/><path d="m320.36 286.73c1.91-.37 3.87-.78 5.77-1.15l.44 4.46c-4.62 1-9.64 2.06-13.51 2.87l-1.25-4.68c1.13-.15 2.44-.37 3.84-.62v-23.22h4.71v8.61h5.77v4.43h-5.77zm15.64 2.06c1 0 1.21-1.06 1.43-5.18a13.5 13.5 0 0 0 4.25 2c-.44 5.46-1.63 7.64-5.21 7.64h-3.78c-4 0-5.09-1.49-5.09-6.52v-22.34h4.71v9.49a61.48 61.48 0 0 0 5.78-3.12l3.09 4c-2.78 1.28-6 2.5-8.87 3.53v8.45c0 1.84.1 2.06 1.13 2.06z" fill="#00306e"/><path d="m360.39 284.21h12v4.18h-12v5.15h-4.68v-5.15h-11.71v-4.18h11.73v-1.72l-4.15.31-.34-2c-1.9.94-3.9 1.84-5.59 2.59l-2.12-3.65c2-.59 5-1.68 7.93-2.74l.53 2.18 1.93-.06c.44-.41.88-.84 1.34-1.31-1.15-.91-2.62-2-3.83-2.78l-2.43 1.97a25.27 25.27 0 0 0 -4.59-3.46l3-2.41a31.46 31.46 0 0 1 4.4 2.87l1.44-1.78.65.41c.41-.62.75-1.25 1.09-1.87h-9.89v-4.06h10.64v-2.7h4.68v2.75h11v4.09h-12.62l.53.18c-.93 1.19-1.9 2.41-2.78 3.44.41.25.75.53 1.1.78 1-1.16 1.93-2.34 2.65-3.37l3.49 1.56c-1.15 1.31-2.43 2.65-3.74 4l2.78-1.15c.46.68 1 1.43 1.43 2.21l2-1.59a41.19 41.19 0 0 1 6.24 3.87l-3.28 2.68a27.7 27.7 0 0 0 -3.86-2.84 14.05 14.05 0 0 1 .53 1.41l-3.41 1.5a14 14 0 0 0 -.48-1.52l-5.62.47h4zm.07-5.4a10.88 10.88 0 0 0 -.72-1.16c-.44.41-.88.85-1.31 1.25zm3.52-3.9a25.85 25.85 0 0 0 3.84-4l4.09 1.91a51.33 51.33 0 0 1 -4.62 3.8z" fill="#00306e"/><path d="m387 306.81h-182v-55.3h182zm-180-2h178v-51.3h-178z" fill="#00306e"/><path d="m333.45 521.93v3.32h-21.61v-3.32h2.72v-10.14h3.56v10.14h3.46v-13.39h-9v-3.32h20.25v3.32h-7.63v4.54h6.27v3.32h-6.27v5.53z"/><path d="m343.83 519.84c-.42-.58-1-1.33-1.61-2.08v8.31h-3.37v-7.56a16.83 16.83 0 0 1 -2.51 1.87 14.56 14.56 0 0 0 -1.56-3.27 15.77 15.77 0 0 0 6.13-5.93h-5.22v-3.06h3.16v-4.29h3.37v4.29h.51l.59-.12 1.9 1.24a23 23 0 0 1 -2.6 5c1.12.92 2.81 2.42 3.27 2.88zm13.77 2.16v3.35h-13.39v-3.35h5.12v-7.93h-4.14v-3.28h4.14v-6.76h3.52v6.76h4.15v3.28h-4.16v7.93z"/><path d="m375.83 521.88c1.94.59 4 1.29 5.45 1.83l-3 2.38a64.68 64.68 0 0 0 -7.65-2.69l2.15-1.52h-5.9l1.92 1.38a30.76 30.76 0 0 1 -7.28 2.79 26.64 26.64 0 0 0 -2.6-2.44 28.24 28.24 0 0 0 5.43-1.73h-3.11v-10.6h17.53v10.6zm2.17-11.21h-15.68v-6.2h15.68zm-13.35 3.49h10.58v-.61h-10.62zm0 2.71h10.58v-.61h-10.62zm0 2.74h10.58v-.61h-10.62zm9.72-12.55h-8.59v1h8.59z"/><path d="m47.52 40.94c1.54 1.78 4.1 2.57 8.24 2.74a12.69 12.69 0 0 0 -2.06 3.25c-4.38-.47-6.93-1.68-8.69-4.12-1.28 1.83-4 3.44-9.76 4.17a15.2 15.2 0 0 0 -1.94-2.86c5.57-.65 7.87-1.87 8.76-3.18h-8.07v-2.83h8.56v-1.2h3.44v1.2h9.06v2.83zm2.11-12.59c-.31 3.79-1.15 6.69-4.5 8.56a7.81 7.81 0 0 0 -1.45-2v.8c-3.46.39-7.11.77-9.83 1l-.23-2.71c1.09-.07 2.41-.19 3.83-.31v-1.53h-3v-2.5h3v-1h-3.45v-2.54h3.41v-1.45h3.14v1.45h3v2.51h-3v1h2.74v2.5h-2.7v1.27l3-.28v1.17c2.13-1.38 2.64-3.35 2.83-5.94h-2.25v-2.84h10.68s0 .85 0 1.22c-.19 5.53-.42 7.84-1 8.64a2.44 2.44 0 0 1 -1.85 1.05 16 16 0 0 1 -2.62.14 7.57 7.57 0 0 0 -.87-3c.72.07 1.36.07 1.73.07a.81.81 0 0 0 .73-.3c.28-.38.42-1.69.56-5z"/><path d="m79.13 28.51s0 1.1 0 1.52c-.3 10.16-.58 13.93-1.57 15.22a3.34 3.34 0 0 1 -2.48 1.49 19.2 19.2 0 0 1 -3.7.12 7.83 7.83 0 0 0 -1.14-3.42c1.42.12 2.74.12 3.37.12a1.11 1.11 0 0 0 1-.42c.68-.7 1-4 1.2-11.42h-5.81a18 18 0 0 1 -1.89 2.9 21.31 21.31 0 0 0 -2.22-1.62 18.62 18.62 0 0 1 1.66 4.26l-2.55 1.2c-.07-.35-.17-.75-.28-1.17l-.92.07v1.8l2.09-.68a33.35 33.35 0 0 1 1.47 4.4l-2.62 1a26.26 26.26 0 0 0 -.94-3.39v6.46h-3v-7.3a21 21 0 0 1 -1.27 5.62 17.66 17.66 0 0 0 -2.53-1.22 17.56 17.56 0 0 0 1.08-5.4l2.74.49v-1.55l-3.3.24-.28-2.93 1.85-.07c.28-.35.53-.73.81-1.1a21 21 0 0 0 -2.66-3.14l1.56-2.36.47.4a30.37 30.37 0 0 0 1.52-3.93l3 1c-.89 1.67-1.85 3.49-2.67 4.8.17.21.35.42.49.61.75-1.24 1.45-2.5 2-3.6l2.85 1.17c-1 1.45-2 3-3.13 4.51l1.94-.86a17.65 17.65 0 0 0 3.7-7.7l3.53.77c-.28 1-.63 2.08-1 3.09zm-15.4 6.13c-.18-.44-.37-.86-.58-1.26-.35.47-.68.91-1 1.33zm7 6.32a21.58 21.58 0 0 0 -2.69-5.38l2.72-1.36a20.76 20.76 0 0 1 2.92 5.22z"/><path d="m89.64 40.71c-.42-.59-1-1.34-1.62-2.09v8.31h-3.37v-7.56a17.29 17.29 0 0 1 -2.5 1.87 14.57 14.57 0 0 0 -1.57-3.24 15.77 15.77 0 0 0 6.13-6h-5.22v-3h3.16v-4.3h3.35v4.3h.52l.58-.12 1.9 1.22a23 23 0 0 1 -2.6 5c1.12.92 2.81 2.42 3.28 2.88zm13.76 2.2v3.34h-13.4v-3.34h5.13v-7.91h-4.13v-3.31h4.14v-6.76h3.51v6.76h4.17v3.31h-4.17v7.94z"/><path d="m120.74 42.74c1.94.59 4 1.29 5.45 1.83l-3 2.39a62.27 62.27 0 0 0 -7.65-2.7l2.15-1.52h-5.89l1.91 1.38a30.68 30.68 0 0 1 -7.27 2.79 27.83 27.83 0 0 0 -2.6-2.44 28.24 28.24 0 0 0 5.43-1.73h-3.12v-10.6h17.54v10.6zm2.13-11.21h-15.64v-6.2h15.64zm-13.34 3.47h10.58v-.61h-10.58zm0 2.71h10.58v-.61h-10.58zm0 2.74h10.58v-.63h-10.58zm9.71-12.55h-8.59v1h8.59z"/><path d="m389.07 510a5.89 5.89 0 0 1 .57-2.66 5.48 5.48 0 0 1 1.6-1.91 7 7 0 0 1 2.35-1.14 11.32 11.32 0 0 1 5.74 0 6.72 6.72 0 0 1 2.34 1.14 5.56 5.56 0 0 1 1.59 1.91 5.64 5.64 0 0 1 .6 2.66 4.89 4.89 0 0 1 -1 3.09 5.15 5.15 0 0 1 -2.76 1.81v.1a5.16 5.16 0 0 1 4.12 5.36 5.8 5.8 0 0 1 -2.35 4.82 7.78 7.78 0 0 1 -2.49 1.2 10.67 10.67 0 0 1 -5.86 0 7.73 7.73 0 0 1 -2.48-1.2 5.87 5.87 0 0 1 -1.72-2 6 6 0 0 1 -.64-2.81 5.58 5.58 0 0 1 1.06-3.45 5.48 5.48 0 0 1 3.06-1.91v-.07a5.23 5.23 0 0 1 -2.76-1.81 4.88 4.88 0 0 1 -.97-3.13zm4.3 9.68a2.59 2.59 0 0 0 .85 2 3.52 3.52 0 0 0 4.49 0 2.62 2.62 0 0 0 .84-2 2.67 2.67 0 0 0 -.84-2 3.52 3.52 0 0 0 -4.49 0 2.65 2.65 0 0 0 -.85 2.04zm.38-9a2.33 2.33 0 0 0 .75 1.75 3 3 0 0 0 3.93 0 2.33 2.33 0 0 0 .75-1.75 2.3 2.3 0 0 0 -.75-1.72 3.07 3.07 0 0 0 -3.93 0 2.3 2.3 0 0 0 -.75 1.74z"/><path d="m421.55 508.45h-8.77l-.09 3.4a6.31 6.31 0 0 1 2-.25 9.27 9.27 0 0 1 3.09.5 7 7 0 0 1 2.42 1.45 6.67 6.67 0 0 1 1.57 2.31 7.82 7.82 0 0 1 .56 3 8.34 8.34 0 0 1 -.63 3.33 7.1 7.1 0 0 1 -1.77 2.48 7.58 7.58 0 0 1 -2.66 1.55 10.38 10.38 0 0 1 -3.36.53 8 8 0 0 1 -4.8-1.4 7.24 7.24 0 0 1 -2.66-4.25l4.9-1.12a3.2 3.2 0 0 0 1 1.92 2.91 2.91 0 0 0 2 .73 3.16 3.16 0 0 0 2.39-.93 3.34 3.34 0 0 0 .89-2.38 3.28 3.28 0 0 0 -.46-1.79 3.33 3.33 0 0 0 -1.18-1.12 4.92 4.92 0 0 0 -1.64-.58 11.07 11.07 0 0 0 -1.81-.16 13.1 13.1 0 0 0 -2.32.22 18 18 0 0 0 -2.27.59l.25-12.2h13.36z"/><path d="m425.07 523.74a3 3 0 0 1 .22-1.12 2.79 2.79 0 0 1 .61-.92 2.9 2.9 0 0 1 .92-.61 2.83 2.83 0 0 1 1.12-.22 2.89 2.89 0 0 1 2.05.83 2.62 2.62 0 0 1 .6.92 2.83 2.83 0 0 1 .22 1.12 2.88 2.88 0 0 1 -.22 1.13 2.67 2.67 0 0 1 -1.52 1.52 2.88 2.88 0 0 1 -1.13.22 2.83 2.83 0 0 1 -1.12-.22 2.71 2.71 0 0 1 -.92-.6 2.9 2.9 0 0 1 -.61-.92 3.07 3.07 0 0 1 -.22-1.13z"/><path d="m444.35 508.64h-10.92v-4.31h16.17v4.12l-8.83 18h-5.46z"/><path d="m452.41 515.57a3.88 3.88 0 0 1 .33-1.6 4.1 4.1 0 0 1 5.37-2.2 4 4 0 0 1 1.3.89 4.25 4.25 0 0 1 .88 1.31 4.16 4.16 0 0 1 0 3.2 4.37 4.37 0 0 1 -.88 1.31 4.07 4.07 0 0 1 -4.5.88 4 4 0 0 1 -1.3-.88 4.17 4.17 0 0 1 -.87-1.31 3.92 3.92 0 0 1 -.33-1.6zm6.08 0a2 2 0 0 0 -.57-1.42 1.9 1.9 0 0 0 -1.41-.58 1.88 1.88 0 0 0 -1.4.58 2 2 0 0 0 0 2.83 1.88 1.88 0 0 0 1.4.58 1.9 1.9 0 0 0 1.41-.58 2 2 0 0 0 .57-1.41zm6.61-4.57 1.75 1-8.59 15.08-1.58-.89zm-2.22 11.51a4 4 0 0 1 .32-1.61 4.34 4.34 0 0 1 .87-1.31 4 4 0 0 1 1.3-.88 4.19 4.19 0 0 1 3.21 0 4 4 0 0 1 1.3.88 4.54 4.54 0 0 1 .87 1.31 4.13 4.13 0 0 1 .32 1.61 4.2 4.2 0 0 1 -.32 1.61 4.59 4.59 0 0 1 -.87 1.32 4 4 0 0 1 -1.3.88 4.19 4.19 0 0 1 -3.21 0 4 4 0 0 1 -1.3-.88 4.39 4.39 0 0 1 -.87-1.32 4 4 0 0 1 -.32-1.58zm6.07 0a2 2 0 0 0 -.57-1.42 2 2 0 0 0 -2.81 0 2 2 0 0 0 -.57 1.42 2 2 0 0 0 .57 1.43 2 2 0 0 0 2.81 0 2 2 0 0 0 .62-1.4z"/><path d="m135.57 30.92-4.43 3.9-2.65-3.06 7.2-6.09h4.37v22.09h-4.49z"/><path d="m154.51 43.33h-9.64v-3.93l9-13.73h5.13v13.73h2.84v3.93h-2.84v4.43h-4.49zm0-11.54h-.06l-4.9 7.61h5z"/><path d="m165.12 45.08a3 3 0 0 1 .21-1.12 2.79 2.79 0 0 1 .61-.92 2.89 2.89 0 0 1 2.05-.83 2.83 2.83 0 0 1 1.12.22 2.9 2.9 0 0 1 .89.57 2.79 2.79 0 0 1 .61.92 3 3 0 0 1 .22 1.12 3.07 3.07 0 0 1 -.22 1.13 2.75 2.75 0 0 1 -.61.91 2.6 2.6 0 0 1 -.92.61 2.83 2.83 0 0 1 -1.08.31 2.88 2.88 0 0 1 -1.13-.22 2.6 2.6 0 0 1 -.92-.61 2.75 2.75 0 0 1 -.61-.91 3.06 3.06 0 0 1 -.22-1.18z"/><path d="m181.06 34.38h1.53a9 9 0 0 0 1.28-.09 4.22 4.22 0 0 0 1.14-.36 2.19 2.19 0 0 0 .82-.75 2.26 2.26 0 0 0 .32-1.26 2.07 2.07 0 0 0 -.8-1.66 2.94 2.94 0 0 0 -1.95-.65 2.71 2.71 0 0 0 -2.75 2.06l-5.14-1.07a7 7 0 0 1 1.12-2.44 6 6 0 0 1 1.78-1.64 7.48 7.48 0 0 1 2.29-.92 11.5 11.5 0 0 1 2.67-.3 10.9 10.9 0 0 1 2.82.36 6.93 6.93 0 0 1 2.39 1.12 5.75 5.75 0 0 1 1.64 1.92 5.9 5.9 0 0 1 .61 2.75 5.22 5.22 0 0 1 -1 3.15 4.45 4.45 0 0 1 -2.81 1.68v.1a4.32 4.32 0 0 1 1.76.59 5 5 0 0 1 1.3 1.15 5.26 5.26 0 0 1 .81 1.56 6 6 0 0 1 .28 1.84 6.27 6.27 0 0 1 -.64 2.91 6.08 6.08 0 0 1 -1.72 2.07 7.32 7.32 0 0 1 -2.52 1.23 11.4 11.4 0 0 1 -3.08.41 9.3 9.3 0 0 1 -5.1-1.37 6.7 6.7 0 0 1 -2.82-4.34l4.93-1.15a2.94 2.94 0 0 0 3.27 2.55 2.65 2.65 0 0 0 3-2.84 2.13 2.13 0 0 0 -1.4-2.21 4.42 4.42 0 0 0 -1.41-.3c-.52 0-1 0-1.56 0h-1.09z"/><path d="m194.46 36.91a3.88 3.88 0 0 1 .32-1.6 4.1 4.1 0 0 1 5.37-2.2 4.11 4.11 0 0 1 1.31.89 4.41 4.41 0 0 1 .87 1.31 4.16 4.16 0 0 1 0 3.2 4.54 4.54 0 0 1 -.87 1.31 4.08 4.08 0 0 1 -1.31.88 4 4 0 0 1 -3.2 0 4 4 0 0 1 -1.3-.88 4.17 4.17 0 0 1 -.87-1.31 3.91 3.91 0 0 1 -.32-1.6zm6.07 0a2 2 0 0 0 -.57-1.42 2 2 0 0 0 -2.81 0 2 2 0 0 0 0 2.83 2 2 0 0 0 2.81 0 2 2 0 0 0 .57-1.41zm6.61-4.54 1.75 1-8.59 15.06-1.58-.89zm-2.22 11.51a4.13 4.13 0 0 1 .32-1.61 4.54 4.54 0 0 1 .87-1.31 4.15 4.15 0 0 1 1.3-.88 4.19 4.19 0 0 1 3.21 0 4 4 0 0 1 1.3.88 4.34 4.34 0 0 1 .87 1.31 4 4 0 0 1 .32 1.61 4 4 0 0 1 -.32 1.61 4.39 4.39 0 0 1 -.87 1.32 4 4 0 0 1 -1.3.88 4.19 4.19 0 0 1 -3.21 0 4.15 4.15 0 0 1 -1.3-.88 4.59 4.59 0 0 1 -.87-1.32 4.2 4.2 0 0 1 -.32-1.61zm6.07 0a2 2 0 0 0 -.57-1.42 2 2 0 0 0 -2.81 0 2 2 0 0 0 -.57 1.42 2 2 0 0 0 .57 1.43 2 2 0 0 0 2.81 0 2 2 0 0 0 .58-1.43z"/><path d="m230.05 97.67-12.74-37.17h-187.31v-2h188.74l13.21 38.53z" fill="#333"/><path d="m475 538.86-181.84-.15-18.32-66.23 1.92-.54 17.92 64.77 180.32.15z" fill="#333"/><g fill="#999"><path d="m308.35 579 5.08-5.08.45.45-5.08 5.08 5.08 5.08-.45.45-5.08-5.09-5.1 5.1-.44-.45 5.09-5.09-5.08-5.08.45-.45zm-3.23.45a1.16 1.16 0 1 1 -1.16-1.16 1.17 1.17 0 0 1 1.16 1.14zm3.23-3.24a1.16 1.16 0 1 1 1.15-1.21 1.16 1.16 0 0 1 -1.15 1.19zm0 6.47a1.16 1.16 0 1 1 -1.15 1.16 1.16 1.16 0 0 1 1.15-1.18zm3.23-3.23a1.16 1.16 0 1 1 2.31 0 1.16 1.16 0 0 1 -2.31 0z"/><path d="m321.51 582.81 5.33-5.16.49-.49a5.83 5.83 0 0 0 .46-.55 4 4 0 0 0 .33-.61 1.75 1.75 0 0 0 .14-.67 1.55 1.55 0 0 0 -.17-.76 1.59 1.59 0 0 0 -.43-.56 1.79 1.79 0 0 0 -.63-.36 2.19 2.19 0 0 0 -.77-.13 2 2 0 0 0 -1.43.51 2.07 2.07 0 0 0 -.68 1.35l-2.45-.19a4.44 4.44 0 0 1 .46-1.68 3.76 3.76 0 0 1 1-1.21 4.26 4.26 0 0 1 1.4-.74 5.59 5.59 0 0 1 1.72-.25 6.1 6.1 0 0 1 1.74.24 4 4 0 0 1 1.4.72 3.37 3.37 0 0 1 1 1.21 4.56 4.56 0 0 1 -.25 4 8.66 8.66 0 0 1 -1.52 1.8l-4.25 3.93h6.36v2.1h-9.19z"/><path d="m333.36 578.41a13 13 0 0 1 .26-2.78 7.93 7.93 0 0 1 .69-1.94 4.63 4.63 0 0 1 1-1.26 4.11 4.11 0 0 1 1.09-.72 4.19 4.19 0 0 1 1.07-.32 5.1 5.1 0 0 1 1.8 0 4.31 4.31 0 0 1 1.07.32 3.91 3.91 0 0 1 1.08.72 4.27 4.27 0 0 1 1 1.26 7.18 7.18 0 0 1 .69 1.94 15 15 0 0 1 0 5.56 7.18 7.18 0 0 1 -.69 1.94 4.46 4.46 0 0 1 -1 1.27 4.1 4.1 0 0 1 -1.08.71 3.92 3.92 0 0 1 -1.07.32 5.1 5.1 0 0 1 -1.8 0 3.82 3.82 0 0 1 -1.07-.32 4.32 4.32 0 0 1 -1.09-.71 4.86 4.86 0 0 1 -1-1.27 7.93 7.93 0 0 1 -.69-1.94 13 13 0 0 1 -.26-2.78zm2.33 0a14 14 0 0 0 .09 1.48 6.51 6.51 0 0 0 .36 1.61 3.42 3.42 0 0 0 .79 1.28 2.14 2.14 0 0 0 2.8 0 3.55 3.55 0 0 0 .79-1.28 7 7 0 0 0 .36-1.61 12.21 12.21 0 0 0 0-3 6.79 6.79 0 0 0 -.36-1.6 3.38 3.38 0 0 0 -.79-1.28 2.11 2.11 0 0 0 -2.8 0 3.27 3.27 0 0 0 -.79 1.28 6.33 6.33 0 0 0 -.36 1.6 14 14 0 0 0 -.09 1.52z"/><path d="m345.47 582.81 5.33-5.16.49-.49a4.52 4.52 0 0 0 .45-.55 3.36 3.36 0 0 0 .34-.61 1.75 1.75 0 0 0 .14-.67 1.67 1.67 0 0 0 -.17-.76 1.71 1.71 0 0 0 -.43-.56 1.79 1.79 0 0 0 -.63-.36 2.19 2.19 0 0 0 -.77-.13 2.08 2.08 0 0 0 -1.44.51 2.11 2.11 0 0 0 -.67 1.35l-2.45-.19a4.26 4.26 0 0 1 .46-1.68 3.76 3.76 0 0 1 1-1.21 4.31 4.31 0 0 1 1.39-.74 5.65 5.65 0 0 1 1.73-.25 6.1 6.1 0 0 1 1.74.24 4.13 4.13 0 0 1 1.4.72 3.35 3.35 0 0 1 .95 1.21 3.9 3.9 0 0 1 .35 1.73 4.16 4.16 0 0 1 -.59 2.24 8.66 8.66 0 0 1 -1.52 1.8l-4.25 3.93h6.36v2.1h-9.19z"/><path d="m356.83 578.41a12.34 12.34 0 0 1 .27-2.78 7.18 7.18 0 0 1 .69-1.94 4.27 4.27 0 0 1 1-1.26 3.91 3.91 0 0 1 1.08-.72 4.31 4.31 0 0 1 1.07-.32 5.1 5.1 0 0 1 1.8 0 4.19 4.19 0 0 1 1.07.32 4.11 4.11 0 0 1 1.09.72 4.63 4.63 0 0 1 1 1.26 7.93 7.93 0 0 1 .69 1.94 15 15 0 0 1 0 5.56 7.93 7.93 0 0 1 -.69 1.94 4.86 4.86 0 0 1 -1 1.27 4.32 4.32 0 0 1 -1.09.71 3.82 3.82 0 0 1 -1.07.32 5.1 5.1 0 0 1 -1.8 0 3.92 3.92 0 0 1 -1.07-.32 4.1 4.1 0 0 1 -1.08-.71 4.46 4.46 0 0 1 -1-1.27 7.18 7.18 0 0 1 -.69-1.94 12.34 12.34 0 0 1 -.27-2.78zm2.33 0a14 14 0 0 0 .09 1.48 7 7 0 0 0 .36 1.61 3.42 3.42 0 0 0 .79 1.28 2.14 2.14 0 0 0 2.8 0 3.42 3.42 0 0 0 .79-1.28 7 7 0 0 0 .36-1.61 12.21 12.21 0 0 0 0-3 6.79 6.79 0 0 0 -.36-1.6 3.27 3.27 0 0 0 -.79-1.28 2.11 2.11 0 0 0 -2.8 0 3.27 3.27 0 0 0 -.79 1.28 6.79 6.79 0 0 0 -.36 1.6 14 14 0 0 0 -.09 1.52z"/><path d="m384.64 583.21h-5.64v3.51h-2v-3.51h-7.38v-1.87h2.59v-4.34h4.79v-2h-3.5a14.74 14.74 0 0 1 -2.23 3 14 14 0 0 0 -1.69-1.26 12.71 12.71 0 0 0 3.45-5.46l2 .5a11.17 11.17 0 0 1 -.54 1.35h9.27v1.89h-4.76v2h4.33v1.81h-4.33v2.49h5.61zm-7.64-1.87v-2.49h-2.83v2.49z"/><path d="m391.77 574.22-2.58 2.39-1.36-1.61 4.15-3.46h2.12v13.74h-2.33z"/><path d="m397.73 578.41a13 13 0 0 1 .26-2.78 7.93 7.93 0 0 1 .69-1.94 4.63 4.63 0 0 1 1-1.26 4.11 4.11 0 0 1 1.09-.72 4.19 4.19 0 0 1 1.07-.32 5.1 5.1 0 0 1 1.8 0 4.31 4.31 0 0 1 1.07.32 3.91 3.91 0 0 1 1.08.72 4.27 4.27 0 0 1 1 1.26 7.18 7.18 0 0 1 .69 1.94 14.45 14.45 0 0 1 0 5.56 7.18 7.18 0 0 1 -.69 1.94 4.46 4.46 0 0 1 -1 1.27 4.1 4.1 0 0 1 -1.08.71 3.92 3.92 0 0 1 -1.07.32 5.1 5.1 0 0 1 -1.8 0 3.82 3.82 0 0 1 -1.07-.32 4.32 4.32 0 0 1 -1.09-.71 4.86 4.86 0 0 1 -1-1.27 7.93 7.93 0 0 1 -.69-1.94 13 13 0 0 1 -.26-2.78zm2.33 0a14 14 0 0 0 .09 1.48 7 7 0 0 0 .36 1.61 3.42 3.42 0 0 0 .79 1.28 2.14 2.14 0 0 0 2.8 0 3.55 3.55 0 0 0 .79-1.28 7 7 0 0 0 .36-1.61 12.21 12.21 0 0 0 0-3 6.79 6.79 0 0 0 -.36-1.6 3.38 3.38 0 0 0 -.79-1.28 2.11 2.11 0 0 0 -2.8 0 3.27 3.27 0 0 0 -.79 1.28 6.79 6.79 0 0 0 -.36 1.6 14 14 0 0 0 -.09 1.52z"/><path d="m423.2 584.21c0 1.18-.28 1.74-1 2.07a10 10 0 0 1 -3.63.38 8.14 8.14 0 0 0 -.82-2c1.15.06 2.53 0 2.89 0s.52-.14.52-.48v-2.38h-7a8.82 8.82 0 0 1 -2.77 4.91 7.53 7.53 0 0 0 -1.51-1.42c2.48-2.11 2.71-5.24 2.71-7.74v-5.39h10.61zm-2.07-4.3v-2h-6.58c0 .63-.05 1.32-.11 2zm-6.58-5.85v2h6.58v-2z"/><path d="m427.79 577.33h7.21v2.77h-7.2z"/><path d="m443 574.22-2.58 2.39-1.31-1.61 4.15-3.46h2.11v13.74h-2.37z"/><path d="m449.62 582.81 5.34-5.16.48-.49a5.83 5.83 0 0 0 .46-.55 5.24 5.24 0 0 0 .34-.61 1.74 1.74 0 0 0 .13-.67 1.67 1.67 0 0 0 -.16-.76 1.74 1.74 0 0 0 -.44-.56 1.79 1.79 0 0 0 -.63-.36 2.19 2.19 0 0 0 -.77-.13 2 2 0 0 0 -1.43.51 2.12 2.12 0 0 0 -.68 1.35l-2.45-.19a4.63 4.63 0 0 1 .46-1.68 3.76 3.76 0 0 1 1-1.21 4.36 4.36 0 0 1 1.4-.74 5.59 5.59 0 0 1 1.72-.25 6.1 6.1 0 0 1 1.74.24 4.09 4.09 0 0 1 1.41.72 3.46 3.46 0 0 1 1 1.21 4.47 4.47 0 0 1 -.25 4 8.66 8.66 0 0 1 -1.52 1.8l-4.25 3.93h6.37v2.1h-9.2z"/><path d="m475.69 584.21c0 1.18-.28 1.74-1 2.07a10 10 0 0 1 -3.62.38 8.14 8.14 0 0 0 -.82-2c1.15.06 2.53 0 2.89 0s.52-.14.52-.48v-2.38h-7a8.88 8.88 0 0 1 -2.77 4.91 7.53 7.53 0 0 0 -1.51-1.42c2.48-2.11 2.71-5.24 2.71-7.74v-5.39h10.66zm-2.07-4.3v-2h-6.62c0 .63-.05 1.32-.11 2zm-6.62-5.85v2h6.58v-2z"/><path d="m485.2 583.54h-3.33v1.46h-1.8v-12.61h5.13zm-3.33-9.42v2.88h1.51v-2.89zm1.51 7.68v-3.08h-1.51v3.08zm9.78-3.84v1.41h1.57v1.69h-1.57v3.58c0 .93-.19 1.43-.83 1.72a7.16 7.16 0 0 1 -2.73.33 6.92 6.92 0 0 0 -.63-1.84h1.95s.35-.06.35-.29v-3.53h-5.76v-1.69h5.76v-1.34h-5.79v-1.7h3.71v-1.45h-3.19v-1.7h3.15v-1.73h1.91v1.73h3.28v1.7h-3.24v1.45h3.74v1.7zm-5.43 3.3a11.29 11.29 0 0 1 2 2.69l-1.67 1a11.6 11.6 0 0 0 -1.87-2.76z"/><path d="m496.51 585.77a8.82 8.82 0 0 0 2.05-3.2l1.89.46a10.41 10.41 0 0 1 -2.13 3.61zm13.41-3.87h-11.37v-5.69h4.59v-4.83h2v1.45h5.86v1.82h-5.87v1.56h4.79zm-2-3.89h-7.52v2.08h7.53zm-4.82 5a22.25 22.25 0 0 1 .46 3.37l-2 .25a23 23 0 0 0 -.33-3.44zm3.28-.2a17.69 17.69 0 0 1 1.25 3.25l-1.89.49a20.26 20.26 0 0 0 -1.15-3.35zm3.3-.33a19.32 19.32 0 0 1 2.14 3.43l-1.88.72a18.51 18.51 0 0 0 -2-3.53z"/><path d="m521 584a15 15 0 0 0 1.51-.26 4.4 4.4 0 0 0 3.69-4.35 4 4 0 0 0 -3.4-4.3 35.46 35.46 0 0 1 -1 4.42c-1 3.28-2.37 5.28-4.15 5.28s-3.31-2-3.31-4.73a7.25 7.25 0 0 1 7.48-7 6.2 6.2 0 0 1 6.56 6.35c0 3.41-2.1 5.84-6.2 6.46zm-1.27-4.92a24.94 24.94 0 0 0 .87-3.94 5.09 5.09 0 0 0 -4.11 4.71c0 1.64.65 2.45 1.26 2.45s1.35-.99 2-3.19z"/><path d="m544.11 577.19a11.41 11.41 0 0 0 1.49-.1v2.14c-.41 0-1-.05-1.49-.05h-4a10.42 10.42 0 0 1 -1 4.21 7.94 7.94 0 0 1 -3.3 3.15l-1.92-1.39a6.68 6.68 0 0 0 3-2.35 7.13 7.13 0 0 0 1-3.62h-4.51c-.48 0-1.12 0-1.58.06v-2.15a11.76 11.76 0 0 0 1.58.1zm-8.66-2.19c-.56 0-1.26 0-1.75 0v-2.12a11.07 11.07 0 0 0 1.75.14h5.36a11.86 11.86 0 0 0 1.78-.14v2.12c-.56 0-1.2 0-1.78 0zm8.1-.38a22.49 22.49 0 0 0 -1.29-2.28l1.31-.54c.41.61 1 1.64 1.3 2.25zm2-.75a18.72 18.72 0 0 0 -1.31-2.26l1.3-.55a24.67 24.67 0 0 1 1.31 2.23z"/><path d="m549 577.68c.59.05 1.78.1 2.64.1h8.81c.75 0 1.49-.06 1.92-.1v2.58c-.4 0-1.24-.08-1.92-.08h-8.81c-.94 0-2 0-2.64.08z"/><path d="m578.85 574.81a7.08 7.08 0 0 0 -.54 1.17 19.11 19.11 0 0 1 -2.27 4.49c.61.38 1.17.76 1.58 1l-1.5 1.92a17.32 17.32 0 0 0 -1.52-1.16 15.74 15.74 0 0 1 -6.05 4.08l-1.91-1.66a13.81 13.81 0 0 0 6.12-3.67c-1.11-.72-2.23-1.39-3.07-1.87l1.4-1.56c.87.44 2 1.07 3.08 1.72a11.89 11.89 0 0 0 1.71-3.49h-4.71a19.13 19.13 0 0 1 -4.33 4.23l-1.77-1.36a15 15 0 0 0 5.23-5.45 7 7 0 0 0 .74-1.72l2.38.74c-.4.57-.82 1.33-1 1.67h3.37a5.39 5.39 0 0 0 1.42-.18z"/></g><path d="m0 0h590v600h-590z" fill="none"/></svg>