<svg viewBox="0 0 1050 500" xmlns="http://www.w3.org/2000/svg"><path d="m604.57 63.39 6.6-5.93a12.38 12.38 0 0 0 1-1 2 2 0 0 0 .5-1.35 1.62 1.62 0 0 0 -.62-1.35 2.28 2.28 0 0 0 -1.46-.49 2 2 0 0 0 -1.58.62 2.57 2.57 0 0 0 -.63 1.54l-3.6-.27a5.89 5.89 0 0 1 .55-2.29 4.75 4.75 0 0 1 1.27-1.62 5.32 5.32 0 0 1 1.86-1 7.84 7.84 0 0 1 2.32-.33 6.88 6.88 0 0 1 2.16.33 4.89 4.89 0 0 1 1.75 1 4.26 4.26 0 0 1 1.16 1.59 5.56 5.56 0 0 1 .42 2.24 6.08 6.08 0 0 1 -.16 1.47 5.36 5.36 0 0 1 -.47 1.2 5.84 5.84 0 0 1 -.71 1 12.45 12.45 0 0 1 -.89.89l-5.15 4.36h7.54v3.2h-11.86z"/><path d="m623 56.91h1.18a7.93 7.93 0 0 0 1-.07 2.83 2.83 0 0 0 .88-.28 1.67 1.67 0 0 0 .63-.58 1.74 1.74 0 0 0 .25-1 1.59 1.59 0 0 0 -.62-1.27 2.25 2.25 0 0 0 -1.5-.5 2.13 2.13 0 0 0 -1.39.45 2.09 2.09 0 0 0 -.72 1.13l-4-.82a5.52 5.52 0 0 1 .86-1.88 4.82 4.82 0 0 1 1.37-1.26 6 6 0 0 1 1.77-.71 9 9 0 0 1 2-.23 8.66 8.66 0 0 1 2.17.28 5.29 5.29 0 0 1 1.84.86 4.39 4.39 0 0 1 1.28 1.51 4.5 4.5 0 0 1 .46 2.11 4 4 0 0 1 -.74 2.43 3.42 3.42 0 0 1 -2.16 1.29v.07a3.48 3.48 0 0 1 1.36.46 3.68 3.68 0 0 1 1 .89 3.82 3.82 0 0 1 .63 1.2 4.72 4.72 0 0 1 .21 1.41 4.83 4.83 0 0 1 -.49 2.24 4.65 4.65 0 0 1 -1.27 1.59 5.58 5.58 0 0 1 -1.94 1 8.75 8.75 0 0 1 -2.37.31 7.11 7.11 0 0 1 -3.92-1 5.13 5.13 0 0 1 -2.17-3.34l3.79-.89a2.6 2.6 0 0 0 .78 1.44 2.53 2.53 0 0 0 1.74.53 2 2 0 0 0 2.3-2.18 1.82 1.82 0 0 0 -.3-1.12 1.84 1.84 0 0 0 -.78-.59 3.57 3.57 0 0 0 -1.08-.23q-.6 0-1.2 0h-.85z"/><path d="m633.6 65.14a2.27 2.27 0 0 1 .17-.86 2.14 2.14 0 0 1 1.23-1.18 2.26 2.26 0 0 1 1.72 0 2.14 2.14 0 0 1 1.18 1.18 2.26 2.26 0 0 1 0 1.72 2.14 2.14 0 0 1 -1.18 1.18 2.26 2.26 0 0 1 -1.72 0 2.14 2.14 0 0 1 -1.23-1.18 2.27 2.27 0 0 1 -.17-.86z"/><path d="m652.29 53.38h-6.75l-.07 2.62a4.67 4.67 0 0 1 1.51-.2 7 7 0 0 1 2.38.39 5.27 5.27 0 0 1 1.86 1.11 5.07 5.07 0 0 1 1.21 1.78 6.06 6.06 0 0 1 .43 2.34 6.33 6.33 0 0 1 -.49 2.57 5.5 5.5 0 0 1 -1.37 1.91 5.77 5.77 0 0 1 -2 1.18 7.67 7.67 0 0 1 -2.58.41 6.11 6.11 0 0 1 -3.69-1.08 5.46 5.46 0 0 1 -2-3.26l3.76-.87a2.5 2.5 0 0 0 .77 1.48 2.23 2.23 0 0 0 1.56.56 2.43 2.43 0 0 0 1.84-.72 2.55 2.55 0 0 0 .68-1.82 2.4 2.4 0 0 0 -1.34-2.24 3.71 3.71 0 0 0 -1.26-.45 8.16 8.16 0 0 0 -1.39-.12 10 10 0 0 0 -1.79.17 11.12 11.12 0 0 0 -1.74.46l.19-9.39h10.28z"/><path d="m655.85 58.85a3.17 3.17 0 0 1 .24-1.23 3.33 3.33 0 0 1 .68-1 3.06 3.06 0 0 1 1-.68 3.14 3.14 0 0 1 3.46.68 3.3 3.3 0 0 1 .67 1 3 3 0 0 1 .25 1.23 3 3 0 0 1 -.25 1.23 3.18 3.18 0 0 1 -.67 1 3 3 0 0 1 -1 .68 3.15 3.15 0 0 1 -2.46 0 2.91 2.91 0 0 1 -1-.68 3.21 3.21 0 0 1 -.68-1 3.14 3.14 0 0 1 -.24-1.23zm4.67 0a1.53 1.53 0 0 0 -.44-1.09 1.5 1.5 0 0 0 -1.08-.44 1.47 1.47 0 0 0 -1.08.44 1.49 1.49 0 0 0 -.44 1.09 1.47 1.47 0 0 0 .44 1.09 1.44 1.44 0 0 0 1.08.45 1.47 1.47 0 0 0 1.08-.45 1.51 1.51 0 0 0 .44-1.09zm5.09-3.49 1.34.76-6.61 11.6-1.22-.72zm-1.72 8.85a3.14 3.14 0 0 1 .25-1.23 3.49 3.49 0 0 1 .67-1 3.28 3.28 0 0 1 1-.68 3.18 3.18 0 0 1 2.47 0 3.16 3.16 0 0 1 1 .68 3.49 3.49 0 0 1 .67 1 3 3 0 0 1 .25 1.23 3.05 3.05 0 0 1 -.25 1.24 3.41 3.41 0 0 1 -.67 1 3.16 3.16 0 0 1 -1 .68 3.18 3.18 0 0 1 -2.47 0 3.28 3.28 0 0 1 -1-.68 3.41 3.41 0 0 1 -.67-1 3.23 3.23 0 0 1 -.25-1.24zm4.68 0a1.5 1.5 0 0 0 -.45-1.09 1.53 1.53 0 0 0 -2.15 0 1.59 1.59 0 0 0 0 2.2 1.53 1.53 0 0 0 2.15 0 1.51 1.51 0 0 0 .45-1.11z"/><path d="m797.52 234-158.77-13.91a159.23 159.23 0 0 1 158.77-145.49z" fill="#66bded" stroke="#fff" stroke-linecap="round" stroke-linejoin="round" stroke-width="6"/><path d="m797.52 234 139.4 77.27a159.38 159.38 0 0 1 -216.67 62.13c-56-31.07-87.09-89.45-81.5-153.29z" fill="#3887c1" stroke="#fff" stroke-linecap="round" stroke-linejoin="round" stroke-width="6"/><path d="m797.52 234v-159.4a159.38 159.38 0 0 1 159.38 159.4c0 29.23-5.81 51.71-20 77.27z" fill="#00306e" stroke="#fff" stroke-linecap="round" stroke-linejoin="round" stroke-width="6"/><path d="m253.52 234-125.59-98.14c31-39.68 75.24-61.26 125.59-61.26z" fill="#3887c1" stroke="#fff" stroke-linecap="round" stroke-linejoin="round" stroke-width="6"/><path d="m253.52 234v-159.4a159.38 159.38 0 1 1 -159.38 159.4c0-37.67 10.59-68.44 33.79-98.12z" fill="#00306e" stroke="#fff" stroke-linecap="round" stroke-linejoin="round" stroke-width="6"/><circle cx="797.86" cy="233.57" fill="#fff" r="105"/><path d="m797.86 341.57a108 108 0 1 1 108-108 108.12 108.12 0 0 1 -108 108zm0-210a102 102 0 1 0 102 102 102.12 102.12 0 0 0 -102-102z" fill="#fff"/><path d="m741.14 231.94a18.91 18.91 0 0 0 -4.45-2.59l1.56-2.2a17.18 17.18 0 0 1 4.57 2.34zm2.84 3.29c-1.24 2.61-2.67 5.46-4.05 7.88l-2.57-1.83a75 75 0 0 0 4.37-7.88zm-1.51-9.89a16.82 16.82 0 0 0 -4.37-2.66l1.6-2.2a19.66 19.66 0 0 1 4.48 2.44zm11.29 8.82a11.59 11.59 0 0 0 6.3 6.77 11.37 11.37 0 0 0 -2 2.57c-3.21-1.58-5.31-4.32-6.72-7.9a12.37 12.37 0 0 1 -6.4 7.93 11.3 11.3 0 0 0 -2.44-2.08c3.75-2 5.41-4.52 6.12-7.29h-4.81v-2.76h5.19c.05-.82.07-1.63.07-2.45v-2h-4.07v-2.76h4.12v-3.79h2.88v3.76h5.93v7.24h1.85v2.76zm-1.76-5.16c0 .81 0 1.6-.08 2.42h3.14v-4.48h-3.06z" fill="#00306e"/><path d="m775.05 240.12a25.28 25.28 0 0 0 2.82.15c1.33 0 5.41 0 7.06-.08a10.8 10.8 0 0 0 -1 3h-6.18c-4.57 0-8-.74-10.18-4.27a12.53 12.53 0 0 1 -3.31 4.69 17.4 17.4 0 0 0 -2.42-2c2.67-2 3.88-5.39 4.32-9.61l3.07.3c-.15 1.11-.32 2.14-.55 3.13a6.67 6.67 0 0 0 3.32 3.87v-8.72h-5.26v-2.79h13.59v2.79h-5.29v3.09h6.79v2.77h-6.79zm-9.16-11.07h-2.89v-6.18h9v-2.47h3.12v2.47h9v6.18h-3v-3.38h-15.23z" fill="#00306e"/><path d="m805.53 240.31c.74 0 .89-.47 1-3.38a8.29 8.29 0 0 0 2.67 1.19c-.3 3.9-1.09 5-3.39 5h-2.81c-2.76 0-3.41-.91-3.41-3.7v-6h-3.59c-.55 4.4-1.81 8.08-7.49 10.23a9 9 0 0 0 -1.83-2.59c4.92-1.61 5.86-4.38 6.23-7.64h-5.91v-2.84h9.46v-4h-4.25a18 18 0 0 1 -1.9 3.36 20.81 20.81 0 0 0 -2.59-1.29 20.64 20.64 0 0 0 3.28-7.88l3 .6c-.22.76-.46 1.55-.74 2.39h3.19v-3.33h3v3.33h7.55v2.82h-7.56v4h9.56v2.84h-6.45v6c0 .81.12.93.89.93z" fill="#00306e"/><path d="m817.58 238.73c1.71-.34 3.48-.74 5.19-1.11l.27 2.89c-3.73.87-7.76 1.76-10.79 2.4l-.82-3c.91-.14 2-.34 3.09-.56v-18.7h3.06v7h4.89v2.87h-4.89zm13.12 1.49c.91 0 1.06-.84 1.23-4.2a9.06 9.06 0 0 0 2.75 1.28c-.3 4.18-1.07 5.78-3.71 5.78h-3.41c-2.86 0-3.65-1-3.65-4.5v-17.93h3v7.95a35.7 35.7 0 0 0 5.12-2.86l2 2.57a63.36 63.36 0 0 1 -7.14 3.14v7.16c0 1.41.13 1.61 1.07 1.61z" fill="#00306e"/><path d="m844.58 232.48c.47-.44.94-.91 1.41-1.38a29.57 29.57 0 0 0 -3.12-2.3l-1.8 1.51a19.83 19.83 0 0 0 -3.7-2.72l2-1.6a24.5 24.5 0 0 1 3.55 2.34l1.08-1.33.59.37c.42-.62.82-1.28 1.16-1.9h-8.07v-2.67h8.69v-2.4h3v2.4h8.91v2.62h-10.19l.54.2c-.77 1-1.58 2-2.3 2.84.45.32.87.61 1.24.91.86-1 1.63-2 2.25-2.89l2.29 1.06a59.36 59.36 0 0 1 -4.59 4.82l2.54-.12c-.27-.47-.59-.92-.89-1.34l2.08-.86c.39.52.84 1.11 1.23 1.7l1.51-1.21a31.32 31.32 0 0 1 5.16 3.16l-2.15 1.76a27.62 27.62 0 0 0 -3.93-2.7 10.26 10.26 0 0 1 .84 1.78l-2.22 1a10.66 10.66 0 0 0 -.52-1.23c-3 .27-6 .49-8.37.66l-.3-1.7c-1.56.76-3.19 1.53-4.52 2.12l-1.36-2.38c1.56-.49 3.93-1.41 6.21-2.29l.44 1.82zm4.82 3.86h9.68v2.71h-9.68v4.4h-3v-4.4h-9.5v-2.71h9.48v-1.58h3zm3.13-7.46a22.25 22.25 0 0 0 3.34-3.14l2.62 1.26a37.4 37.4 0 0 1 -3.81 3z" fill="#00306e"/><path d="m872 254h-149v-43h149zm-147-2h145v-39h-145z" fill="#00306e"/><circle cx="253.86" cy="233.57" fill="#fff" r="105"/><path d="m253.86 341.57a108 108 0 1 1 108-108 108.12 108.12 0 0 1 -108 108zm0-210a102 102 0 1 0 102 102 102.12 102.12 0 0 0 -102-102z" fill="#fff"/><path d="m215.63 240.69v2.81h-21.81v-2.81h3v-10.69h3v10.65h4.17v-14.33h-9.26v-2.79h20.27v2.79h-8v5.28h6.79v2.78h-6.79v6.31z" fill="#00306e"/><path d="m226.17 237.86c-.5-.67-1.32-1.63-2.14-2.52v9h-2.83v-8.28a19.8 19.8 0 0 1 -3 2.3 11.63 11.63 0 0 0 -1.35-2.71 17.91 17.91 0 0 0 6.75-6.65h-5.81v-2.57h3.41v-4.43h2.8v4.41h1.08l.51-.12 1.61 1a23 23 0 0 1 -2.84 5.13c1.16.94 3 2.59 3.51 3.07zm13.75 3v2.79h-13.58v-2.79h5.54v-8.78h-4.56v-2.76h4.56v-7.18h2.93v7.18h4.54v2.76h-4.54v8.78z" fill="#00306e"/><path d="m258 240.24c2.23.67 4.68 1.53 6.34 2.18l-2.52 2a65.45 65.45 0 0 0 -7.71-2.79l2-1.41h-6.51l1.82 1.27a31.72 31.72 0 0 1 -7.44 2.88 23.44 23.44 0 0 0 -2.16-2 29.79 29.79 0 0 0 6.15-2.11h-3.72v-10.65h17.55v10.63zm3-11.52h-15.66v-6h15.66zm-13.87 3.86h11.76v-1h-11.8zm0 2.83h11.76v-1h-11.8zm0 2.88h11.76v-1h-11.8zm10.79-13.29h-9.7v1.56h9.7z" fill="#00306e"/><path d="m272 239.81c1.65-.34 3.38-.72 5-1.08l.26 2.81c-3.62.84-7.54 1.7-10.49 2.32l-.79-2.93c.89-.14 1.9-.33 3-.55v-18.14h3v6.84h4.75v2.78h-4.73zm12.74 1.44c.89 0 1-.82 1.2-4.08a8.66 8.66 0 0 0 2.67 1.24c-.29 4.06-1 5.62-3.6 5.62h-3.32c-2.78 0-3.55-1-3.55-4.37v-17.42h2.95v7.76a36.72 36.72 0 0 0 5-2.79l2 2.5a60.62 60.62 0 0 1 -6.94 3v7c0 1.36.12 1.56 1 1.56z" fill="#00306e"/><path d="m298.23 233.73c.46-.43.92-.88 1.37-1.34a29.11 29.11 0 0 0 -3-2.23l-1.75 1.46a19.08 19.08 0 0 0 -3.6-2.64l1.89-1.56a24.09 24.09 0 0 1 3.46 2.28l1.1-1.34.58.36c.41-.6.79-1.25 1.13-1.85h-7.85v-2.54h8.44v-2.33h2.93v2.33h8.66v2.54h-9.94l.53.19c-.74 1-1.54 1.95-2.23 2.76.43.31.84.6 1.2.89a34.44 34.44 0 0 0 2.18-2.81l2.23 1a57.6 57.6 0 0 1 -4.46 4.68l2.47-.12c-.26-.45-.57-.88-.86-1.29l2-.84c.39.5.82 1.08 1.21 1.65l1.46-1.17a29.79 29.79 0 0 1 5 3.07l-2.07 1.7a25.91 25.91 0 0 0 -3.82-2.61 9.12 9.12 0 0 1 .82 1.73l-2.16 1a10 10 0 0 0 -.5-1.2c-2.91.26-5.84.48-8.14.64l-.29-1.65c-1.51.74-3.09 1.49-4.39 2.06l-1.34-2.3c1.51-.48 3.81-1.37 6-2.23l.43 1.77zm4.69 3.75h9.4v2.64h-9.4v4.27h-2.92v-4.27h-9.22v-2.64h9.22v-1.54h2.93zm3-7.25a21.42 21.42 0 0 0 3.24-3l2.55 1.23a38 38 0 0 1 -3.7 3z" fill="#00306e"/><path d="m329 255h-149v-43h149zm-147-2h145v-39h-145z" fill="#00306e"/><path d="m314.11 420.25v2.55h-16.61v-2.55h2.08v-7.8h2.74v7.8h2.68v-10.25h-6.92v-2.56h15.58v2.56h-5.87v3.49h4.82v2.51h-4.82v4.25z"/><path d="m322.1 418.64c-.32-.45-.77-1-1.24-1.6v6.39h-2.59v-5.81a14.64 14.64 0 0 1 -1.93 1.44 11.3 11.3 0 0 0 -1.2-2.52 12.19 12.19 0 0 0 4.71-4.56h-4v-2.36h2.43v-3.29h2.59v3.29h.4l.45-.09 1.46 1a17.74 17.74 0 0 1 -2 3.81c.86.71 2.16 1.86 2.52 2.22zm10.59 1.7v2.57h-10.3v-2.57h3.94v-6.11h-3.18v-2.52h3.18v-5.2h2.67v5.2h3.2v2.52h-3.2v6.11z"/><path d="m346.71 420.21c1.5.45 3.06 1 4.2 1.4l-2.33 1.84a47.93 47.93 0 0 0 -5.88-2.07l1.65-1.17h-4.53l1.47 1.06a24.05 24.05 0 0 1 -5.6 2.15 19.06 19.06 0 0 0 -2-1.88 22 22 0 0 0 4.18-1.33h-2.39v-8.16h13.52v8.16zm1.64-8.63h-12v-4.77h12zm-10.26 2.69h8.14v-.47h-8.14zm0 2.09h8.14v-.47h-8.14zm0 2.1h8.14v-.46h-8.14zm7.47-9.65h-6.56v.78h6.61z"/><path d="m58.32 49.72c1.19 1.37 3.15 2 6.34 2.11a9.91 9.91 0 0 0 -1.59 2.5c-3.36-.33-5.32-1.33-6.67-3.17-1 1.41-3.12 2.65-7.51 3.21a12.25 12.25 0 0 0 -1.5-2.2c4.29-.5 6-1.44 6.74-2.45h-6.23v-2.18h6.59v-.91h2.66v.91h7v2.18zm1.62-9.72c-.23 2.91-.88 5.15-3.46 6.59a5.88 5.88 0 0 0 -1.11-1.55v.61c-2.67.31-5.48.59-7.57.81l-.19-2.12 2.95-.24v-1.1h-2.29v-2h2.31v-.79h-2.58v-1.88h2.63v-1.12h2.37v1.12h2.34v1.92h-2.34v.75h2.1v2h-2.1v1l2.34-.21v.9c1.66-1.14 2.05-2.69 2.19-4.69h-1.78v-2.14h8.25s0 .64 0 .93c-.15 4.25-.32 6-.79 6.65a1.89 1.89 0 0 1 -1.35.81 12.57 12.57 0 0 1 -2 .11 5.91 5.91 0 0 0 -.75-2.36 12.25 12.25 0 0 0 1.34.06.61.61 0 0 0 .55-.24c.22-.29.33-1.29.44-3.81z"/><path d="m82.68 40.16s0 .85 0 1.17c-.26 7.82-.47 10.67-1.23 11.67a2.63 2.63 0 0 1 -1.91 1.15 16.48 16.48 0 0 1 -2.84.09 6.21 6.21 0 0 0 -.88-2.63c1.1.09 2.1.09 2.59.09a.86.86 0 0 0 .77-.32c.53-.54.74-3.1.92-8.79h-4.46a14.11 14.11 0 0 1 -1.46 2.23 16.06 16.06 0 0 0 -1.69-1.22 14.25 14.25 0 0 1 1.27 3.27l-2 .9q-.08-.41-.21-.9l-.71.06v1.38l1.61-.52a25.37 25.37 0 0 1 1.13 3.39l-2 .74a19.22 19.22 0 0 0 -.72-2.62v5h-2.3v-5.57a16.26 16.26 0 0 1 -1 4.32 14.3 14.3 0 0 0 -2-.93 13.69 13.69 0 0 0 .91-4.12l2.11.38v-1.23l-2.58.18-.22-2.25 1.47-.08c.21-.27.41-.56.63-.84a16.62 16.62 0 0 0 -2.06-2.42l1.18-1.74.36.3a23.36 23.36 0 0 0 1.17-3l2.31.79c-.69 1.28-1.43 2.68-2.06 3.69.13.16.27.32.38.47a30.28 30.28 0 0 0 1.51-2.77l2.2.9c-.74 1.11-1.57 2.34-2.41 3.47l1.54-.74a13.6 13.6 0 0 0 2.85-5.92l2.72.6c-.22.81-.49 1.6-.78 2.37zm-11.85 4.72c-.14-.34-.29-.67-.45-1-.27.36-.52.7-.79 1zm5.4 4.86a17.36 17.36 0 0 0 -2.07-4.14l2.09-1.05a16.4 16.4 0 0 1 2.25 4z"/><path d="m90.91 49.54c-.32-.45-.77-1-1.24-1.6v6.39h-2.6v-5.81a14.56 14.56 0 0 1 -1.92 1.48 11.11 11.11 0 0 0 -1.21-2.52 12.21 12.21 0 0 0 4.72-4.56h-4v-2.4h2.43v-3.29h2.6v3.29h.39l.45-.09 1.46 1a17.3 17.3 0 0 1 -2 3.81c.87.71 2.16 1.86 2.52 2.22zm10.59 1.7v2.57h-10.3v-2.57h3.94v-6.11h-3.14v-2.52h3.19v-5.2h2.7v5.2h3.21v2.52h-3.26v6.11z"/><path d="m114.49 51.11c1.5.45 3.06 1 4.2 1.4l-2.33 1.84a47.93 47.93 0 0 0 -5.88-2.07l1.65-1.17h-4.54l1.48 1.06a23.6 23.6 0 0 1 -5.6 2.14 20.11 20.11 0 0 0 -2-1.87 22 22 0 0 0 4.18-1.33h-2.39v-8.11h13.48v8.16zm1.64-8.63h-12v-4.77h12zm-10.26 2.69h8.13v-.47h-8.13zm0 2.09h8.13v-.47h-8.13zm0 2.1h8.13v-.48h-8.13zm7.47-9.65h-6.61v.78h6.61z"/><path d="m506.7 354.92a11.18 11.18 0 0 1 -3.29 4.25 30.28 30.28 0 0 0 5.93 1 12.21 12.21 0 0 0 -1.69 2.6 23.53 23.53 0 0 1 -7.13-1.84 25.2 25.2 0 0 1 -7.25 1.9 9.4 9.4 0 0 0 -1.62-2.47 27.68 27.68 0 0 0 6.06-1.08 13.1 13.1 0 0 1 -2.52-2.47l.89-.36h-.95v-2.53h9.21l.48-.1 1.48.88v-1.86h-11.59v1.93h-2.58v-4.31h2.56a14.39 14.39 0 0 0 -.68-1.63l1.54-.42c-.9 0-1.79.06-2.64.08a9 9 0 0 0 -.61-2.34 102.56 102.56 0 0 0 14.38-1.25l1.84 2.24c-2.11.38-4.52.68-7 .89a8 8 0 0 1 .72 2.15l-1.17.28h2.79a19.63 19.63 0 0 0 .93-2.62l3 .65c-.38.7-.78 1.36-1.14 2h2.35v4.31h-2.57zm-6.37-6.81c-1.27.1-2.54.18-3.8.23a8.35 8.35 0 0 1 .84 1.88l-.8.23h3a11.69 11.69 0 0 0 -.61-2zm-2.16 8.33a9.7 9.7 0 0 0 2.33 1.61 8.26 8.26 0 0 0 2-1.61z"/><path d="m518.67 350.32h-8v-2.15h8zm-.82 11.78h-3.85v.68h-2.38v-6.59h6.27zm-6.19-11.21h6.25v2.05h-6.25zm0 2.62h6.25v2.05h-6.25zm6.29-5.89h-6.18v-2.05h6.23zm-4 10.72v1.66h1.48v-1.61zm11.93 1.91c.43 0 .53-.53.61-2.69a7.48 7.48 0 0 0 2.5 1.14c-.26 3.06-1 4.18-2.83 4.18h-1.82c-2.19 0-2.78-.86-2.78-3.69v-3.61l-2.83.46-.45-2.68 3.28-.51v-3.5c-.76.15-1.51.27-2.24.38a9.58 9.58 0 0 0 -.87-2.34 30.89 30.89 0 0 0 7.54-2.18l2.26 2.24a31.67 31.67 0 0 1 -3.89 1.27v3.69l4-.61.45 2.6-4.42.73v4.06c0 .95 0 1.06.49 1.06z"/><path d="m533.56 352.66v10.41h-2.69v-17.37h7.6v7zm0-5v.65h2.32v-.65zm2.32 3.1v-.76h-2.32v.7zm6.06 8.24v3.76h-2.41v-3.76h-1.33a6.26 6.26 0 0 1 -2.37 4.14 9.37 9.37 0 0 0 -1.75-1.55 4.13 4.13 0 0 0 1.75-2.59h-1.64v-2.22h1.75v-1.08h-1.5v-2.15h9.08v2.15h-1.58v1.08h1.85v2.22zm-2.41-2.22v-1.08h-1.25v1.08zm7.66 3.23c0 1.31-.21 2-1 2.51a6.32 6.32 0 0 1 -3.19.48 9.72 9.72 0 0 0 -.8-2.72h1.92s.38-.11.38-.38v-7.22h-5v-7h7.74zm-5.11-12.35v.65h2.39v-.65zm2.39 3.15v-.81h-2.39v.75z"/><path d="m561.57 353.89v1.77h3.8v2.52h-3.8v1.49c0 .76.06.85.51.85h1c.43 0 .53-.36.61-2a7.83 7.83 0 0 0 2.47 1.06c-.27 2.57-1 3.38-2.8 3.38h-1.86c-2.32 0-2.87-.81-2.87-3.27v-1.5h-2c-.46 2-1.77 3.84-5.19 5a10.09 10.09 0 0 0 -1.74-2.2c2.3-.69 3.42-1.67 3.95-2.76h-3.42v-2.52h3.89v-1.77h-1.38v-.57a14.13 14.13 0 0 1 -2.36 1.43 10.38 10.38 0 0 0 -1.67-2.08 10.73 10.73 0 0 0 2.77-1.69c-.45-.43-1.12-1-1.63-1.4l1.73-1.43c.45.33 1.06.76 1.54 1.16a13.3 13.3 0 0 0 .87-1.25h-3.38v-2.41h4.73l.47-.09 1.85.83a13.72 13.72 0 0 1 -2.7 4.85h5.91a18.42 18.42 0 0 1 -3.1-5.57l2.49-.7a11.28 11.28 0 0 0 .82 1.8 15.51 15.51 0 0 0 1.33-1.44l2.07 1.44c-.74.65-1.52 1.29-2.23 1.81a7.06 7.06 0 0 0 .63.72 20.54 20.54 0 0 0 1.81-1.8l2 1.4a26.49 26.49 0 0 1 -2.26 1.82 11.84 11.84 0 0 0 2.62 1.49 10.56 10.56 0 0 0 -1.92 2.39 12.32 12.32 0 0 1 -2.13-1.29v.53zm-2.89 0h-1.82v1.77h1.82z"/><path d="m921.33 17.11v14.8h-2.79v-.85h-8v.85h-2.65v-14.8h4.64a20.6 20.6 0 0 0 .38-2.29l3.21.33c-.25.68-.54 1.37-.79 2zm-10.8 2.5v1.39h8v-1.39zm0 3.8v1.4h8v-1.4zm8 5.24v-1.42h-8v1.42z"/><path d="m930.42 27.17c-.33-.45-.78-1-1.25-1.6v6.43h-2.59v-5.85a13.8 13.8 0 0 1 -1.93 1.44 10.88 10.88 0 0 0 -1.2-2.52 12.28 12.28 0 0 0 4.72-4.56h-4v-2.36h2.43v-3.29h2.59v3.29h.4l.45-.09 1.46 1a17.74 17.74 0 0 1 -2 3.81c.86.71 2.16 1.86 2.52 2.22zm10.58 1.7v2.57h-10.3v-2.57h3.95v-6.11h-3.19v-2.52h3.19v-5.24h2.7v5.2h3.2v2.52h-3.2v6.11z"/><path d="m956.21 19.2a11.28 11.28 0 0 0 2.18-.15v2.88c-.5-.05-1.13-.05-2.16-.05h-1v.58c0 4.26-1.1 7.13-5.58 9.09l-2.34-2.2c3.6-1.19 5.06-2.75 5.06-6.82v-.65h-3.79v2.18c0 .88.06 1.58.09 2h-3a18.37 18.37 0 0 0 .11-2v-2.18h-1.3c-1 0-1.51 0-2 .07v-2.95a10.7 10.7 0 0 0 2 .2h1.3v-1.5a13.14 13.14 0 0 0 -.13-1.8h3.1a14.71 14.71 0 0 0 -.13 1.82v1.48h3.79v-1.69a12.07 12.07 0 0 0 -.11-1.79h3.09a15.61 15.61 0 0 0 -.12 1.79v1.69z"/><path d="m960.53 21.59c.72.06 2.23.13 3.11.13h9.57c.8 0 1.69-.09 2.21-.13v3.41c-.47 0-1.48-.11-2.21-.11h-9.57c-1 0-2.37.06-3.11.11z"/><path d="m981.18 27.21c0 .7.34.88 1.11 1a15 15 0 0 0 1.91.09 31.68 31.68 0 0 0 6.34-.65v3.18a52.28 52.28 0 0 1 -6.52.37 20.07 20.07 0 0 1 -3.11-.22 2.83 2.83 0 0 1 -2.65-2.9v-9.71a19.54 19.54 0 0 0 -.14-2.11h3.2a17.77 17.77 0 0 0 -.14 2.11v3a49.84 49.84 0 0 0 5.87-1.89 13.38 13.38 0 0 0 2.17-1.06l1.16 2.76c-.8.32-1.7.7-2.33.93a69.14 69.14 0 0 1 -6.87 2.11zm7.43-8.64a26.81 26.81 0 0 0 -1.38-2.51l1.69-.68c.45.67 1.08 1.84 1.4 2.47zm2.52-4.05a24.84 24.84 0 0 1 1.43 2.48l-1.7.72a19.23 19.23 0 0 0 -1.42-2.49z"/><path d="m1008.11 17.94a9.11 9.11 0 0 0 -.74 1.31 28.86 28.86 0 0 1 -2.72 4.76 46.88 46.88 0 0 1 4.9 5l-2.55 2.2a35.75 35.75 0 0 0 -4.3-4.94 23.89 23.89 0 0 1 -6.61 4.92l-2.27-2.36a20.06 20.06 0 0 0 7.37-5.06 13.24 13.24 0 0 0 2.52-4.07h-5.6c-.81 0-1.8.11-2.31.15v-3.1a21.6 21.6 0 0 0 2.31.14h6a7.38 7.38 0 0 0 2.16-.27z"/><path d="m1014.26 22.08v9.92h-2.55v-16.51h7.2v6.59zm0-4.77v.61h2.2v-.61zm2.2 2.93v-.66h-2.2v.66zm5.74 7.82v3.56h-2.28v-3.56h-1.26a5.93 5.93 0 0 1 -2.26 3.94 8.67 8.67 0 0 0 -1.65-1.47 3.86 3.86 0 0 0 1.65-2.45h-1.54v-2.08h1.65v-1h-1.42v-2h8.61v2h-1.5v1h1.8v2.11zm-2.28-2.06v-1h-1.19v1zm7.25 3.06c0 1.24-.2 1.95-.92 2.38a5.92 5.92 0 0 1 -3.08.48 8.89 8.89 0 0 0 -.75-2.57h1.82s.36-.1.36-.36v-6.86h-4.76v-6.64h7.33zm-4.84-11.7v.61h2.27v-.61zm2.27 3v-.72h-2.27v.72z"/><path d="m1041.05 23.25v1.67h3.6v2.4h-3.6v1.4c0 .72 0 .81.48.81h1c.42 0 .51-.34.58-1.91a7.22 7.22 0 0 0 2.34 1c-.25 2.43-.92 3.21-2.65 3.21h-1.8c-2.2 0-2.72-.78-2.72-3.1v-1.41h-1.94c-.44 1.87-1.68 3.64-4.92 4.7a9.43 9.43 0 0 0 -1.66-2.09c2.18-.65 3.25-1.59 3.75-2.61h-3.24v-2.4h3.73v-1.67h-1.31v-.54a13.74 13.74 0 0 1 -2.24 1.35 9.57 9.57 0 0 0 -1.58-2 10.87 10.87 0 0 0 2.63-1.61c-.43-.41-1.07-.93-1.55-1.33l1.64-1.35c.43.31 1 .72 1.46 1.1a10.91 10.91 0 0 0 .82-1.19h-3.2v-2.19h4.48l.45-.09 1.75.79a13 13 0 0 1 -2.56 4.59h5.6a17.45 17.45 0 0 1 -2.93-5.27l2.36-.67a10.52 10.52 0 0 0 .77 1.71 12.8 12.8 0 0 0 1.26-1.37l2 1.37c-.7.61-1.44 1.22-2.1 1.71a6.34 6.34 0 0 0 .59.69 18.42 18.42 0 0 0 1.71-1.72l1.91 1.34c-.68.61-1.44 1.22-2.14 1.73a11.35 11.35 0 0 0 2.48 1.4 10.26 10.26 0 0 0 -1.82 2.27 11 11 0 0 1 -2-1.23v.51zm-2.74 0h-1.73v1.67h1.73z"/><path d="m569.92 55.77a2.35 2.35 0 0 0 -1.08-.75 3.94 3.94 0 0 0 -1.29-.24 3.18 3.18 0 0 0 -.74.09 2.52 2.52 0 0 0 -.71.26 1.58 1.58 0 0 0 -.55.47 1.21 1.21 0 0 0 -.21.71 1.17 1.17 0 0 0 .51 1 4.42 4.42 0 0 0 1.27.61q.76.25 1.65.51a6.46 6.46 0 0 1 1.64.71 3.86 3.86 0 0 1 1.27 1.24 3.75 3.75 0 0 1 .51 2.08 4.84 4.84 0 0 1 -.46 2.16 4.37 4.37 0 0 1 -1.25 1.53 5.42 5.42 0 0 1 -1.83.91 8.27 8.27 0 0 1 -2.19.29 7.79 7.79 0 0 1 -2.69-.44 6.58 6.58 0 0 1 -2.31-1.43l2.33-2.48a3.3 3.3 0 0 0 1.27 1 3.55 3.55 0 0 0 1.58.37 3.21 3.21 0 0 0 .81-.1 2.42 2.42 0 0 0 .74-.28 1.72 1.72 0 0 0 .52-.48 1.18 1.18 0 0 0 .2-.7 1.27 1.27 0 0 0 -.51-1.06 4.87 4.87 0 0 0 -1.29-.66q-.78-.27-1.68-.54a7.51 7.51 0 0 1 -1.68-.74 4 4 0 0 1 -1.29-1.22 3.42 3.42 0 0 1 -.52-2 4.52 4.52 0 0 1 .47-2.1 4.63 4.63 0 0 1 1.26-1.49 5.58 5.58 0 0 1 1.82-.92 7.54 7.54 0 0 1 2.12-.3 8.33 8.33 0 0 1 2.44.36 5.52 5.52 0 0 1 2.12 1.19z"/><path d="m574.92 52.14h10.08v3h-6.83v2.77h6.45v3h-6.45v3h7.21v3h-10.46z"/><path d="m595.75 55.77a2.35 2.35 0 0 0 -1.08-.75 3.94 3.94 0 0 0 -1.29-.24 3.18 3.18 0 0 0 -.74.09 2.52 2.52 0 0 0 -.71.26 1.58 1.58 0 0 0 -.55.47 1.21 1.21 0 0 0 -.21.71 1.17 1.17 0 0 0 .51 1 4.29 4.29 0 0 0 1.32.69c.51.17 1.06.34 1.64.51a6.38 6.38 0 0 1 1.65.71 3.86 3.86 0 0 1 1.27 1.24 3.75 3.75 0 0 1 .51 2.08 4.71 4.71 0 0 1 -.47 2.16 4.24 4.24 0 0 1 -1.24 1.53 5.42 5.42 0 0 1 -1.83.91 8.27 8.27 0 0 1 -2.19.29 7.79 7.79 0 0 1 -2.69-.44 6.58 6.58 0 0 1 -2.31-1.43l2.28-2.56a3.3 3.3 0 0 0 1.27 1 3.55 3.55 0 0 0 1.58.37 3.21 3.21 0 0 0 .81-.1 2.52 2.52 0 0 0 .72-.27 1.72 1.72 0 0 0 .52-.48 1.25 1.25 0 0 0 .2-.7 1.27 1.27 0 0 0 -.51-1.06 4.87 4.87 0 0 0 -1.29-.66q-.78-.27-1.68-.54a7.51 7.51 0 0 1 -1.68-.74 4.09 4.09 0 0 1 -1.3-1.22 3.5 3.5 0 0 1 -.51-2 4.52 4.52 0 0 1 .47-2.1 4.63 4.63 0 0 1 1.28-1.5 5.58 5.58 0 0 1 1.82-.92 7.49 7.49 0 0 1 2.12-.3 8.33 8.33 0 0 1 2.44.36 5.52 5.52 0 0 1 2.12 1.17z"/><path d="m356.78 411.1a4.45 4.45 0 0 1 .44-2.05 4.1 4.1 0 0 1 1.22-1.46 5.45 5.45 0 0 1 1.81-.88 8.57 8.57 0 0 1 4.42 0 5.22 5.22 0 0 1 1.8.88 4.18 4.18 0 0 1 1.68 3.51 3.82 3.82 0 0 1 -.75 2.38 4.05 4.05 0 0 1 -2.13 1.39v.05a4 4 0 0 1 3.17 4.13 4.71 4.71 0 0 1 -.49 2.16 4.61 4.61 0 0 1 -1.32 1.55 6.16 6.16 0 0 1 -1.91.92 8.36 8.36 0 0 1 -4.51 0 6.16 6.16 0 0 1 -1.91-.92 4.45 4.45 0 0 1 -1.81-3.71 4.24 4.24 0 0 1 .81-2.65 4.18 4.18 0 0 1 2.36-1.48v-.05a4 4 0 0 1 -2.13-1.39 3.82 3.82 0 0 1 -.75-2.38zm3.31 7.44a2 2 0 0 0 .65 1.52 2.39 2.39 0 0 0 1.72.62 2.41 2.41 0 0 0 1.73-.62 2.11 2.11 0 0 0 0-3.05 2.37 2.37 0 0 0 -1.73-.63 2.35 2.35 0 0 0 -1.72.63 2 2 0 0 0 -.65 1.53zm.29-6.93a1.79 1.79 0 0 0 .62 1.39 2.08 2.08 0 0 0 1.51.55 2.1 2.1 0 0 0 1.49-.55 1.84 1.84 0 0 0 0-2.66 2.1 2.1 0 0 0 -1.52-.55 2.08 2.08 0 0 0 -1.51.55 1.78 1.78 0 0 0 -.59 1.27z"/><path d="m381.81 409.88h-6.74l-.07 2.62a4.73 4.73 0 0 1 1.52-.2 6.93 6.93 0 0 1 2.37.39 5.27 5.27 0 0 1 1.86 1.11 4.94 4.94 0 0 1 1.21 1.78 6.06 6.06 0 0 1 .44 2.34 6.33 6.33 0 0 1 -.5 2.57 5.47 5.47 0 0 1 -1.35 1.91 5.86 5.86 0 0 1 -2.05 1.18 7.75 7.75 0 0 1 -2.58.41 6.12 6.12 0 0 1 -3.7-1.08 5.56 5.56 0 0 1 -2-3.26l3.77-.87a2.4 2.4 0 0 0 .77 1.48 2.2 2.2 0 0 0 1.56.56 2.4 2.4 0 0 0 1.83-.72 2.81 2.81 0 0 0 .34-3.2 2.59 2.59 0 0 0 -.91-.86 3.79 3.79 0 0 0 -1.26-.45 8.27 8.27 0 0 0 -1.4-.12 9.84 9.84 0 0 0 -1.78.17 11.12 11.12 0 0 0 -1.74.46l.19-9.39h10.27z"/><path d="m384.33 421.64a2.27 2.27 0 0 1 .17-.86 2 2 0 0 1 .47-.71 2.1 2.1 0 0 1 .7-.47 2.32 2.32 0 0 1 .87-.17 2.27 2.27 0 0 1 .86.17 2.15 2.15 0 0 1 .71.47 2 2 0 0 1 .47.71 2.26 2.26 0 0 1 0 1.72 2 2 0 0 1 -.47.71 2.15 2.15 0 0 1 -.71.47 2.27 2.27 0 0 1 -.86.17 2.32 2.32 0 0 1 -.87-.17 2.1 2.1 0 0 1 -.7-.47 2 2 0 0 1 -.47-.71 2.27 2.27 0 0 1 -.17-.86z"/><path d="m398.49 410h-8.4v-3.31h12.43v3.17l-6.79 13.82h-4.2z"/><path d="m404.21 415.35a3 3 0 0 1 .25-1.23 3.3 3.3 0 0 1 .67-1 3.14 3.14 0 0 1 3.46-.68 3.06 3.06 0 0 1 1 .68 3.33 3.33 0 0 1 .68 1 3.17 3.17 0 0 1 .24 1.23 3.14 3.14 0 0 1 -.24 1.23 3.21 3.21 0 0 1 -.68 1 2.91 2.91 0 0 1 -1 .68 3.15 3.15 0 0 1 -2.46 0 3 3 0 0 1 -1-.68 3.18 3.18 0 0 1 -.67-1 3 3 0 0 1 -.25-1.23zm4.67 0a1.49 1.49 0 0 0 -.44-1.09 1.47 1.47 0 0 0 -1.08-.44 1.49 1.49 0 0 0 -1.08.44 1.53 1.53 0 0 0 -.44 1.09 1.51 1.51 0 0 0 .44 1.09 1.46 1.46 0 0 0 1.08.45 1.44 1.44 0 0 0 1.08-.45 1.47 1.47 0 0 0 .44-1.09zm5.09-3.49 1.34.76-6.6 11.6-1.22-.69zm-1.71 8.85a3 3 0 0 1 .25-1.23 3.13 3.13 0 0 1 .67-1 3.06 3.06 0 0 1 1-.68 3.15 3.15 0 0 1 2.46 0 3.06 3.06 0 0 1 1 .68 3.3 3.3 0 0 1 .67 1 3 3 0 0 1 .25 1.23 3.05 3.05 0 0 1 -.25 1.24 3.23 3.23 0 0 1 -.67 1 3.06 3.06 0 0 1 -1 .68 3.15 3.15 0 0 1 -2.46 0 3.22 3.22 0 0 1 -1.92-2.94zm4.67 0a1.53 1.53 0 0 0 -.44-1.09 1.55 1.55 0 0 0 -2.16 0 1.59 1.59 0 0 0 0 2.2 1.55 1.55 0 0 0 2.16 0 1.54 1.54 0 0 0 .44-1.11z"/><path d="m129.26 41.24-3.4 3-2-2.35 5.54-4.68h3.36v17h-3.46z"/><path d="m143.16 50.8h-7.41v-3l6.93-10.56h3.94v10.53h2.18v3h-2.18v3.4h-3.46zm0-8.88-3.77 5.85h3.81z"/><path d="m150.73 52.14a2.27 2.27 0 0 1 .17-.86 2 2 0 0 1 .47-.71 2.15 2.15 0 0 1 .71-.47 2.27 2.27 0 0 1 .86-.17 2.32 2.32 0 0 1 .87.17 2.1 2.1 0 0 1 .7.47 2 2 0 0 1 .47.71 2.26 2.26 0 0 1 .02 1.72 2 2 0 0 1 -.47.71 2.1 2.1 0 0 1 -.7.47 2.32 2.32 0 0 1 -.87.17 2.27 2.27 0 0 1 -.86-.17 2.15 2.15 0 0 1 -.71-.47 2 2 0 0 1 -.47-.71 2.27 2.27 0 0 1 -.19-.86z"/><path d="m161.71 43.91h1.18a7.79 7.79 0 0 0 1-.07 2.75 2.75 0 0 0 .88-.28 1.7 1.7 0 0 0 .64-.58 1.83 1.83 0 0 0 .24-1 1.59 1.59 0 0 0 -.62-1.27 2.23 2.23 0 0 0 -1.5-.5 2.13 2.13 0 0 0 -1.39.45 2.09 2.09 0 0 0 -.72 1.13l-4-.82a5.35 5.35 0 0 1 .87-1.88 4.78 4.78 0 0 1 1.36-1.26 6 6 0 0 1 1.77-.71 9.07 9.07 0 0 1 2.05-.23 8.6 8.6 0 0 1 2.17.28 5.29 5.29 0 0 1 1.84.86 4.39 4.39 0 0 1 1.26 1.48 4.5 4.5 0 0 1 .47 2.11 4 4 0 0 1 -.75 2.43 3.37 3.37 0 0 1 -2.16 1.29v.07a3.48 3.48 0 0 1 1.36.46 3.68 3.68 0 0 1 1 .89 3.82 3.82 0 0 1 .63 1.2 4.72 4.72 0 0 1 .21 1.41 4.83 4.83 0 0 1 -.49 2.24 4.65 4.65 0 0 1 -1.32 1.59 5.58 5.58 0 0 1 -1.94 1 8.7 8.7 0 0 1 -2.37.31 7.13 7.13 0 0 1 -3.92-1.05 5.13 5.13 0 0 1 -2.17-3.34l3.79-.89a2.6 2.6 0 0 0 .78 1.44 2.53 2.53 0 0 0 1.74.53 2.26 2.26 0 0 0 1.74-.61 2.21 2.21 0 0 0 .56-1.57 1.82 1.82 0 0 0 -.3-1.12 1.84 1.84 0 0 0 -.78-.59 3.57 3.57 0 0 0 -1.08-.23q-.6 0-1.2 0h-.84z"/><path d="m173.22 45.85a3 3 0 0 1 .25-1.23 3.3 3.3 0 0 1 .67-1 3.06 3.06 0 0 1 1-.68 3.15 3.15 0 0 1 2.46 0 3.06 3.06 0 0 1 1 .68 3.3 3.3 0 0 1 .67 1 3 3 0 0 1 .25 1.23 3 3 0 0 1 -.25 1.23 3.18 3.18 0 0 1 -.67 1 2.91 2.91 0 0 1 -1 .68 3.15 3.15 0 0 1 -2.46 0 2.91 2.91 0 0 1 -1-.68 3.18 3.18 0 0 1 -.67-1 3 3 0 0 1 -.25-1.23zm4.67 0a1.53 1.53 0 0 0 -.44-1.09 1.55 1.55 0 0 0 -2.16 0 1.53 1.53 0 0 0 -.44 1.09 1.51 1.51 0 0 0 .44 1.09 1.52 1.52 0 0 0 2.16 0 1.51 1.51 0 0 0 .44-1.09zm5.11-3.49 1.34.76-6.61 11.6-1.23-.72zm-1.71 8.85a3.14 3.14 0 0 1 .24-1.23 3.33 3.33 0 0 1 .68-1 3.06 3.06 0 0 1 1-.68 3.14 3.14 0 0 1 3.46.68 3.3 3.3 0 0 1 .67 1 3 3 0 0 1 .25 1.23 3.05 3.05 0 0 1 -.25 1.24 3.23 3.23 0 0 1 -.67 1 3.14 3.14 0 0 1 -3.46.68 3.06 3.06 0 0 1 -1-.68 3.16 3.16 0 0 1 -.92-2.26zm4.67 0a1.53 1.53 0 0 0 -.44-1.09 1.5 1.5 0 0 0 -1.08-.44 1.47 1.47 0 0 0 -1.08.44 1.59 1.59 0 0 0 0 2.2 1.43 1.43 0 0 0 1.08.44 1.46 1.46 0 0 0 1.08-.44 1.54 1.54 0 0 0 .42-1.11z"/><path d="m580.39 359.85h-7.39v-3l6.94-10.56h3.93v10.56h2.13v3h-2.19v3.41h-3.45zm0-8.88-3.77 5.86h3.82z"/><path d="m591.84 353h1.16a6.4 6.4 0 0 0 1-.08 2.68 2.68 0 0 0 .87-.27 1.7 1.7 0 0 0 .64-.58 1.76 1.76 0 0 0 .24-1 1.57 1.57 0 0 0 -.62-1.27 2.24 2.24 0 0 0 -1.5-.51 2.15 2.15 0 0 0 -1.39.46 2.11 2.11 0 0 0 -.72 1.13l-4-.82a5.53 5.53 0 0 1 .87-1.88 4.78 4.78 0 0 1 1.36-1.26 6 6 0 0 1 1.77-.71 9.07 9.07 0 0 1 2.05-.23 8.17 8.17 0 0 1 2.17.28 5.29 5.29 0 0 1 1.84.86 4.29 4.29 0 0 1 1.26 1.48 4.47 4.47 0 0 1 .47 2.11 3.94 3.94 0 0 1 -.75 2.42 3.34 3.34 0 0 1 -2.16 1.3v.07a3.27 3.27 0 0 1 1.36.46 3.52 3.52 0 0 1 1 .89 3.62 3.62 0 0 1 .63 1.2 4.67 4.67 0 0 1 .21 1.41 4.79 4.79 0 0 1 -.49 2.23 4.47 4.47 0 0 1 -1.32 1.6 5.76 5.76 0 0 1 -1.94.95 9.09 9.09 0 0 1 -2.36.31 7.09 7.09 0 0 1 -3.93-1.06 5.12 5.12 0 0 1 -2.17-3.33l3.79-.89a2.6 2.6 0 0 0 .78 1.44 2.53 2.53 0 0 0 1.74.53 2.27 2.27 0 0 0 1.74-.61 2.24 2.24 0 0 0 .57-1.58 1.79 1.79 0 0 0 -.3-1.11 1.77 1.77 0 0 0 -.78-.59 3.63 3.63 0 0 0 -1.08-.23h-1.2-.84z"/><path d="m602 361.2a2.32 2.32 0 0 1 .16-.87 2.1 2.1 0 0 1 .47-.7 2.15 2.15 0 0 1 .71-.47 2.27 2.27 0 0 1 .86-.17 2.32 2.32 0 0 1 .87.17 2.1 2.1 0 0 1 1.17 1.17 2.32 2.32 0 0 1 .17.87 2.15 2.15 0 0 1 -1.34 2 2.32 2.32 0 0 1 -.87.16 2.27 2.27 0 0 1 -.86-.16 2.14 2.14 0 0 1 -1.18-1.18 2.27 2.27 0 0 1 -.16-.82z"/><path d="m609.2 359.44 6.6-5.92a12.57 12.57 0 0 0 1-1 1.94 1.94 0 0 0 .5-1.34 1.59 1.59 0 0 0 -.62-1.35 2.29 2.29 0 0 0 -1.46-.5 2 2 0 0 0 -1.58.63 2.55 2.55 0 0 0 -.63 1.53l-3.6-.26a5.72 5.72 0 0 1 .55-2.29 4.75 4.75 0 0 1 1.27-1.62 5.32 5.32 0 0 1 1.86-1 7.84 7.84 0 0 1 2.32-.33 6.88 6.88 0 0 1 2.16.33 4.89 4.89 0 0 1 1.75 1 4.26 4.26 0 0 1 1.16 1.59 5.54 5.54 0 0 1 .42 2.23 6.1 6.1 0 0 1 -.16 1.48 5.36 5.36 0 0 1 -.47 1.2 5.84 5.84 0 0 1 -.71 1 12.36 12.36 0 0 1 -.89.88l-5.16 4.44h7.54v3.17h-11.85z"/><path d="m624 354.91a3.14 3.14 0 0 1 .25-1.23 3.36 3.36 0 0 1 .67-1 3.11 3.11 0 0 1 1-.68 3.18 3.18 0 0 1 2.47 0 3.11 3.11 0 0 1 1 .68 3.36 3.36 0 0 1 .67 1 3.15 3.15 0 0 1 0 2.46 3.49 3.49 0 0 1 -.67 1 3.28 3.28 0 0 1 -1 .68 3.18 3.18 0 0 1 -2.47 0 3.28 3.28 0 0 1 -1-.68 3.49 3.49 0 0 1 -.67-1 3.14 3.14 0 0 1 -.25-1.23zm4.68 0a1.51 1.51 0 0 0 -.44-1.09 1.47 1.47 0 0 0 -1.08-.45 1.44 1.44 0 0 0 -1.08.45 1.55 1.55 0 0 0 0 2.18 1.43 1.43 0 0 0 1.08.44 1.46 1.46 0 0 0 1.08-.44 1.51 1.51 0 0 0 .43-1.09zm5.08-3.49 1.35.75-6.61 11.6-1.22-.68zm-1.76 8.85a3 3 0 0 1 .25-1.23 3.36 3.36 0 0 1 .67-1 3.16 3.16 0 0 1 1-.68 3.18 3.18 0 0 1 2.47 0 3.28 3.28 0 0 1 1 .68 3.36 3.36 0 0 1 .67 1 3.14 3.14 0 0 1 .25 1.23 3.22 3.22 0 0 1 -.92 2.25 3.31 3.31 0 0 1 -1 .69 3.15 3.15 0 0 1 -4.14-1.7 3.05 3.05 0 0 1 -.25-1.24zm4.67 0a1.47 1.47 0 0 0 -.44-1.09 1.44 1.44 0 0 0 -1.08-.45 1.47 1.47 0 0 0 -1.08.45 1.58 1.58 0 0 0 0 2.19 1.47 1.47 0 0 0 1.08.45 1.44 1.44 0 0 0 1.08-.45 1.48 1.48 0 0 0 .48-1.1z"/><path d="m985.44 48.54h1.17a6.41 6.41 0 0 0 1-.07 2.69 2.69 0 0 0 .87-.28 1.67 1.67 0 0 0 .64-.57 1.8 1.8 0 0 0 .24-1 1.59 1.59 0 0 0 -.62-1.27 2.28 2.28 0 0 0 -1.5-.5 2.13 2.13 0 0 0 -1.39.45 2.09 2.09 0 0 0 -.72 1.13l-4-.81a5.49 5.49 0 0 1 .87-1.89 4.78 4.78 0 0 1 1.36-1.26 6.31 6.31 0 0 1 1.77-.71 9.07 9.07 0 0 1 2.05-.22 8.6 8.6 0 0 1 2.17.27 5.31 5.31 0 0 1 1.84.87 4.26 4.26 0 0 1 1.26 1.47 4.5 4.5 0 0 1 .47 2.11 4 4 0 0 1 -.75 2.43 3.37 3.37 0 0 1 -2.17 1.31v.08a3.32 3.32 0 0 1 1.36.45 3.68 3.68 0 0 1 1 .89 3.62 3.62 0 0 1 .63 1.2 4.74 4.74 0 0 1 .21 1.42 4.82 4.82 0 0 1 -.49 2.23 4.54 4.54 0 0 1 -1.32 1.59 5.58 5.58 0 0 1 -1.94 1 8.68 8.68 0 0 1 -2.36.31 7.14 7.14 0 0 1 -3.93-1 5.13 5.13 0 0 1 -2.16-3.44l3.79-.89a2.6 2.6 0 0 0 .78 1.44 2.48 2.48 0 0 0 1.74.53 2.23 2.23 0 0 0 1.74-.61 2.21 2.21 0 0 0 .56-1.57 1.65 1.65 0 0 0 -1.08-1.71 3.51 3.51 0 0 0 -1.08-.22c-.4 0-.8 0-1.19 0h-.84z"/><path d="m1000.75 48.54h1.17a6.41 6.41 0 0 0 1-.07 2.69 2.69 0 0 0 .87-.28 1.61 1.61 0 0 0 .64-.57 1.8 1.8 0 0 0 .24-1 1.58 1.58 0 0 0 -.61-1.27 2.32 2.32 0 0 0 -1.5-.5 2.16 2.16 0 0 0 -1.4.45 2.13 2.13 0 0 0 -.71 1.13l-4-.81a5.68 5.68 0 0 1 .87-1.89 4.69 4.69 0 0 1 1.37-1.26 6.13 6.13 0 0 1 1.76-.71 9.07 9.07 0 0 1 2-.22 8.68 8.68 0 0 1 2.18.27 5.34 5.34 0 0 1 1.83.87 4.26 4.26 0 0 1 1.26 1.47 4.5 4.5 0 0 1 .47 2.11 4 4 0 0 1 -.74 2.43 3.42 3.42 0 0 1 -2.16 1.29v.08a3.27 3.27 0 0 1 1.35.45 3.88 3.88 0 0 1 1 .89 3.8 3.8 0 0 1 .62 1.2 4.74 4.74 0 0 1 .22 1.42 4.82 4.82 0 0 1 -.5 2.23 4.44 4.44 0 0 1 -1.32 1.59 5.5 5.5 0 0 1 -1.94 1 8.63 8.63 0 0 1 -2.36.31 7.16 7.16 0 0 1 -3.93-1 5.17 5.17 0 0 1 -2.17-3.34l3.79-.89a2.6 2.6 0 0 0 .78 1.44 2.5 2.5 0 0 0 1.74.53 2.05 2.05 0 0 0 2.31-2.18 1.65 1.65 0 0 0 -1.08-1.71 3.57 3.57 0 0 0 -1.08-.22c-.4 0-.8 0-1.2 0h-.84z"/><path d="m1011.52 56.77a2.27 2.27 0 0 1 .17-.86 2.15 2.15 0 0 1 .47-.71 2 2 0 0 1 .71-.47 2.27 2.27 0 0 1 .86-.17 2.32 2.32 0 0 1 .87.17 2.1 2.1 0 0 1 .7.47 2.15 2.15 0 0 1 .47.71 2.27 2.27 0 0 1 .17.86 2.32 2.32 0 0 1 -.17.87 2.19 2.19 0 0 1 -1.17 1.17 2.32 2.32 0 0 1 -.87.17 2.27 2.27 0 0 1 -.86-.17 2 2 0 0 1 -.71-.47 2.1 2.1 0 0 1 -.47-.7 2.32 2.32 0 0 1 -.17-.87z"/><path d="m1022.92 48.54h1.18a6.37 6.37 0 0 0 1-.07 2.75 2.75 0 0 0 .88-.28 1.65 1.65 0 0 0 .63-.57 1.8 1.8 0 0 0 .24-1 1.58 1.58 0 0 0 -.61-1.27 2.32 2.32 0 0 0 -1.5-.5 2.13 2.13 0 0 0 -1.39.45 2.09 2.09 0 0 0 -.72 1.13l-4-.81a5.48 5.48 0 0 1 .86-1.89 5 5 0 0 1 1.37-1.26 6.31 6.31 0 0 1 1.77-.71 9 9 0 0 1 2.05-.22 8.66 8.66 0 0 1 2.17.27 5.31 5.31 0 0 1 1.84.87 4.19 4.19 0 0 1 1.72 3.58 3.94 3.94 0 0 1 -.74 2.43 3.4 3.4 0 0 1 -2.16 1.29v.08a3.37 3.37 0 0 1 1.36.45 3.68 3.68 0 0 1 1 .89 4 4 0 0 1 .63 1.2 4.74 4.74 0 0 1 .21 1.42 4.82 4.82 0 0 1 -.49 2.23 4.65 4.65 0 0 1 -1.32 1.59 5.58 5.58 0 0 1 -1.94 1 8.75 8.75 0 0 1 -2.37.31 7.11 7.11 0 0 1 -3.92-1 5.13 5.13 0 0 1 -2.17-3.34l3.79-.89a2.6 2.6 0 0 0 .78 1.44 2.48 2.48 0 0 0 1.74.53 2 2 0 0 0 2.3-2.18 1.65 1.65 0 0 0 -1.08-1.71 3.57 3.57 0 0 0 -1.08-.22c-.4 0-.8 0-1.2 0h-.84z"/><path d="m1033.23 50.48a3.21 3.21 0 0 1 .24-1.23 3.33 3.33 0 0 1 .68-1 3.22 3.22 0 0 1 1-.68 3.27 3.27 0 0 1 2.46 0 3.22 3.22 0 0 1 1 .68 3.3 3.3 0 0 1 .67 1 3.18 3.18 0 0 1 0 2.47 3.14 3.14 0 0 1 -.67 1 2.91 2.91 0 0 1 -1 .68 3.15 3.15 0 0 1 -2.46 0 2.91 2.91 0 0 1 -1-.68 3.16 3.16 0 0 1 -.68-1 3.22 3.22 0 0 1 -.24-1.24zm4.67 0a1.49 1.49 0 0 0 -.44-1.08 1.52 1.52 0 0 0 -2.16 0 1.49 1.49 0 0 0 -.44 1.08 1.51 1.51 0 0 0 .44 1.09 1.52 1.52 0 0 0 2.16 0 1.51 1.51 0 0 0 .44-1.09zm5.1-3.48 1.34.75-6.61 11.6-1.21-.69zm-1.71 8.84a3.21 3.21 0 0 1 .24-1.23 3.33 3.33 0 0 1 .68-1 3.22 3.22 0 0 1 1-.68 3.14 3.14 0 0 1 1.23-.24 3.17 3.17 0 0 1 1.23.24 3.34 3.34 0 0 1 1 .68 3.3 3.3 0 0 1 .67 1 3.18 3.18 0 0 1 0 2.47 3.23 3.23 0 0 1 -.67 1 3.14 3.14 0 0 1 -3.46.68 3.06 3.06 0 0 1 -1-.68 3.16 3.16 0 0 1 -.92-2.26zm4.67 0a1.52 1.52 0 0 0 -1.52-1.53 1.52 1.52 0 0 0 -1.52 1.53 1.5 1.5 0 0 0 .44 1.11 1.44 1.44 0 0 0 1.08.45 1.47 1.47 0 0 0 1.08-.45 1.54 1.54 0 0 0 .48-1.11z"/><path d="m209.4 94.27-18.02-29.27h-149.38v-2h150.5l18.6 30.23z" fill="#333"/><path d="m715.19 113.66-28.73-35.66h-130.46v-2h131.42l29.33 36.4z" fill="#333"/><path d="m423 433.5-147.49-.12-37.32-50.79 1.62-1.18 36.71 49.97 146.48.12z" fill="#333"/><path d="m872.87 107.49-1.74-.98 23.28-41.51h153.59v2h-152.41z" fill="#333"/><path d="m656.28 374h-169.28v-2h168.45l36.84-37.15 1.42 1.41z" fill="#333"/><g fill="#999"><path d="m808.93 478.3 4.42-4.42.39.39-4.42 4.42 4.42 4.42-.39.39-4.42-4.42-4.44 4.43-.38-.39 4.43-4.43-4.42-4.42.39-.39zm-2.82.39a1 1 0 1 1 -1-1 1 1 0 0 1 1 1zm2.82-2.82a1 1 0 1 1 1-1 1 1 0 0 1 -1 1zm0 5.63a1 1 0 1 1 -1 1 1 1 0 0 1 1-1zm2.81-2.81a1 1 0 1 1 2 0 1 1 0 0 1 -2 0z"/><path d="m820.41 481.57 4.78-4.63.44-.44a4.72 4.72 0 0 0 .41-.5 2.94 2.94 0 0 0 .3-.55 1.53 1.53 0 0 0 .12-.6 1.65 1.65 0 0 0 -.14-.68 1.61 1.61 0 0 0 -.4-.5 1.64 1.64 0 0 0 -.56-.32 2 2 0 0 0 -.69-.12 1.84 1.84 0 0 0 -1.29.46 1.93 1.93 0 0 0 -.61 1.21l-2.19-.17a3.86 3.86 0 0 1 .41-1.5 3.38 3.38 0 0 1 .88-1.09 3.83 3.83 0 0 1 1.25-.66 5.14 5.14 0 0 1 1.55-.23 5.21 5.21 0 0 1 1.56.22 3.75 3.75 0 0 1 1.26.64 3.06 3.06 0 0 1 .85 1.09 3.57 3.57 0 0 1 .32 1.55 3.64 3.64 0 0 1 -.54 2 7.71 7.71 0 0 1 -1.36 1.61l-3.76 3.54h5.71v1.88h-8.25z"/><path d="m831 477.62a11.89 11.89 0 0 1 .23-2.5 7.16 7.16 0 0 1 .62-1.74 4.3 4.3 0 0 1 .86-1.13 3.74 3.74 0 0 1 1-.64 3.79 3.79 0 0 1 .95-.29 5.11 5.11 0 0 1 .81-.07 4.93 4.93 0 0 1 .81.07 3.74 3.74 0 0 1 1 .29 3.54 3.54 0 0 1 1 .64 4.32 4.32 0 0 1 .87 1.13 6.78 6.78 0 0 1 .61 1.74 13.14 13.14 0 0 1 0 5 6.78 6.78 0 0 1 -.61 1.74 4.32 4.32 0 0 1 -.87 1.13 3.54 3.54 0 0 1 -1 .64 3.74 3.74 0 0 1 -1 .29 6.34 6.34 0 0 1 -.81.07 6.65 6.65 0 0 1 -.81-.07 3.79 3.79 0 0 1 -.95-.29 3.74 3.74 0 0 1 -1-.64 4.3 4.3 0 0 1 -.86-1.13 7.16 7.16 0 0 1 -.62-1.74 12 12 0 0 1 -.23-2.5zm2.09 0a11.19 11.19 0 0 0 .08 1.33 6.27 6.27 0 0 0 .32 1.44 3 3 0 0 0 .71 1.14 1.66 1.66 0 0 0 1.25.47 1.68 1.68 0 0 0 1.26-.47 3 3 0 0 0 .71-1.14 6.27 6.27 0 0 0 .32-1.44c.05-.5.08-.95.08-1.33s0-.83-.08-1.33a6 6 0 0 0 -.32-1.44 3.14 3.14 0 0 0 -.71-1.15 1.72 1.72 0 0 0 -1.26-.47 1.7 1.7 0 0 0 -1.25.47 3.14 3.14 0 0 0 -.71 1.15 6 6 0 0 0 -.32 1.44 11.19 11.19 0 0 0 -.04 1.33z"/><path d="m841.9 481.57 4.78-4.63.44-.44a4.72 4.72 0 0 0 .41-.5 2.94 2.94 0 0 0 .3-.55 1.53 1.53 0 0 0 .12-.6 1.51 1.51 0 0 0 -.15-.68 1.45 1.45 0 0 0 -.39-.5 1.64 1.64 0 0 0 -.56-.32 2 2 0 0 0 -.69-.12 1.84 1.84 0 0 0 -1.29.46 1.93 1.93 0 0 0 -.61 1.21l-2.19-.17a3.86 3.86 0 0 1 .41-1.5 3.38 3.38 0 0 1 .88-1.09 3.83 3.83 0 0 1 1.25-.66 5.14 5.14 0 0 1 1.55-.23 5.21 5.21 0 0 1 1.56.22 3.75 3.75 0 0 1 1.26.64 3.06 3.06 0 0 1 .85 1.09 3.57 3.57 0 0 1 .32 1.55 3.64 3.64 0 0 1 -.54 2 7.71 7.71 0 0 1 -1.36 1.61l-3.81 3.53h5.71v1.88h-8.25z"/><path d="m852.09 477.62a11.21 11.21 0 0 1 .24-2.5 6.77 6.77 0 0 1 .62-1.74 4.1 4.1 0 0 1 .86-1.13 3.69 3.69 0 0 1 1-.64 3.74 3.74 0 0 1 1-.29 4.72 4.72 0 0 1 1.62 0 3.79 3.79 0 0 1 .95.29 3.74 3.74 0 0 1 1 .64 4.3 4.3 0 0 1 .86 1.13 7.16 7.16 0 0 1 .62 1.74 13.7 13.7 0 0 1 0 5 7.16 7.16 0 0 1 -.62 1.74 4.3 4.3 0 0 1 -.86 1.13 3.74 3.74 0 0 1 -1 .64 3.79 3.79 0 0 1 -.95.29 4.72 4.72 0 0 1 -1.62 0 3.74 3.74 0 0 1 -1-.29 3.69 3.69 0 0 1 -1-.64 4.1 4.1 0 0 1 -.86-1.13 6.77 6.77 0 0 1 -.62-1.74 11.27 11.27 0 0 1 -.24-2.5zm2.09 0c0 .38 0 .83.08 1.33a6.27 6.27 0 0 0 .32 1.44 3 3 0 0 0 .71 1.14 1.7 1.7 0 0 0 1.26.47 1.66 1.66 0 0 0 1.25-.47 3 3 0 0 0 .71-1.14 6.28 6.28 0 0 0 .33-1.44c0-.5.07-.95.07-1.33s0-.83-.07-1.33a6.05 6.05 0 0 0 -.33-1.44 3.14 3.14 0 0 0 -.71-1.15 1.7 1.7 0 0 0 -1.25-.47 1.74 1.74 0 0 0 -1.26.47 3.14 3.14 0 0 0 -.71 1.15 6 6 0 0 0 -.32 1.44c-.05.5-.08.95-.08 1.33z"/><path d="m876.66 482h-4.92v3.09h-1.74v-3.09h-6.48v-1.64h2.28v-3.77h4.2v-1.73h-3.08a13 13 0 0 1 -2 2.62 13.28 13.28 0 0 0 -1.48-1.11 11.16 11.16 0 0 0 3-4.79l1.75.44a9.13 9.13 0 0 1 -.48 1.18h8.14v1.66h-4.13v1.73h3.8v1.58h-3.8v2.19h4.92zm-6.7-1.64v-2.19h-2.49v2.19z"/><path d="m883.11 473.86-2.32 2.14-1.21-1.44 3.72-3.1h1.9v12.32h-2.09z"/><path d="m888.47 477.62a11.21 11.21 0 0 1 .24-2.5 6.41 6.41 0 0 1 .62-1.74 4.1 4.1 0 0 1 .86-1.13 3.54 3.54 0 0 1 1-.64 3.74 3.74 0 0 1 1-.29 4.93 4.93 0 0 1 .81-.07 5.11 5.11 0 0 1 .81.07 3.79 3.79 0 0 1 1 .29 3.74 3.74 0 0 1 1 .64 4.3 4.3 0 0 1 .86 1.13 7.16 7.16 0 0 1 .62 1.74 13.7 13.7 0 0 1 0 5 7.16 7.16 0 0 1 -.62 1.74 4.3 4.3 0 0 1 -.86 1.13 3.74 3.74 0 0 1 -1 .64 3.79 3.79 0 0 1 -1 .29 6.65 6.65 0 0 1 -.81.07 6.34 6.34 0 0 1 -.81-.07 3.74 3.74 0 0 1 -1-.29 3.54 3.54 0 0 1 -1-.64 4.1 4.1 0 0 1 -.86-1.13 6.41 6.41 0 0 1 -.62-1.74 11.27 11.27 0 0 1 -.24-2.5zm2.09 0c0 .38 0 .83.08 1.33a6.27 6.27 0 0 0 .32 1.44 3 3 0 0 0 .71 1.14 1.68 1.68 0 0 0 1.26.47 1.66 1.66 0 0 0 1.25-.47 3 3 0 0 0 .71-1.14 5.79 5.79 0 0 0 .32-1.44 11.1 11.1 0 0 0 0-2.66 5.6 5.6 0 0 0 -.32-1.44 3.14 3.14 0 0 0 -.71-1.15 1.7 1.7 0 0 0 -1.25-.47 1.72 1.72 0 0 0 -1.26.47 3.14 3.14 0 0 0 -.71 1.15 6 6 0 0 0 -.32 1.44c-.05.5-.08.95-.08 1.33z"/><path d="m911 482.84c0 1-.25 1.53-.91 1.82a8.76 8.76 0 0 1 -3.18.33 7.29 7.29 0 0 0 -.72-1.8c1 .06 2.21 0 2.53 0s.46-.11.46-.42v-2.09h-6.18a7.76 7.76 0 0 1 -2.44 4.31 7.06 7.06 0 0 0 -1.32-1.24c2.17-1.86 2.38-4.61 2.38-6.8v-4.74h9.38zm-1.82-3.77v-1.76h-5.77c0 .55 0 1.15-.1 1.76zm-5.77-5.14v1.75h5.77v-1.75z"/><path d="m915.06 476.51h6.67v2.56h-6.67z"/><path d="m929 473.86-2.29 2.14-1.22-1.44 3.73-3.1h1.89v12.32h-2.11z"/><path d="m934.92 481.57 4.79-4.63.43-.44a4.72 4.72 0 0 0 .41-.5 3 3 0 0 0 .31-.55 1.53 1.53 0 0 0 .12-.6 1.51 1.51 0 0 0 -.15-.68 1.73 1.73 0 0 0 -.39-.5 1.59 1.59 0 0 0 -.57-.32 1.91 1.91 0 0 0 -.68-.12 1.8 1.8 0 0 0 -1.29.46 1.88 1.88 0 0 0 -.61 1.21l-2.19-.17a3.7 3.7 0 0 1 .41-1.5 3.36 3.36 0 0 1 .87-1.09 3.78 3.78 0 0 1 1.26-.66 5.09 5.09 0 0 1 1.55-.23 5.19 5.19 0 0 1 1.55.22 3.66 3.66 0 0 1 1.26.64 3.09 3.09 0 0 1 .86 1.09 3.57 3.57 0 0 1 .31 1.55 3.72 3.72 0 0 1 -.53 2 7.77 7.77 0 0 1 -1.37 1.61l-3.81 3.53h5.71v1.88h-8.25z"/><path d="m958 482.84c0 1-.25 1.53-.91 1.82a8.76 8.76 0 0 1 -3.18.33 7.29 7.29 0 0 0 -.72-1.8c1 .06 2.22 0 2.53 0s.46-.11.46-.42v-2.09h-6.18a7.76 7.76 0 0 1 -2.44 4.31 7.06 7.06 0 0 0 -1.32-1.24c2.17-1.86 2.38-4.61 2.38-6.8v-4.74h9.38zm-1.82-3.77v-1.76h-5.77c0 .55 0 1.15-.1 1.76zm-5.77-5.14v1.75h5.77v-1.75z"/><path d="m966.32 482.25h-2.93v1.27h-1.58v-11.06h4.51zm-2.93-8.25v2.54h1.33v-2.54zm1.33 6.74v-2.74h-1.33v2.7zm8.58-3.37v1.24h1.39v1.49h-1.39v3.14c0 .82-.15 1.25-.72 1.51a6.42 6.42 0 0 1 -2.4.29 6 6 0 0 0 -.55-1.62h1.72s.3-.05.3-.26v-3.09h-5.06v-1.49h5.06v-1.24h-5.09v-1.49h3.26v-1.27h-2.77v-1.5h2.77v-1.51h1.68v1.51h2.88v1.5h-2.88v1.27h3.29v1.49zm-4.76 2.9a10.12 10.12 0 0 1 1.74 2.36l-1.47.85a10.25 10.25 0 0 0 -1.64-2.42z"/><path d="m976.25 484.21a7.78 7.78 0 0 0 1.8-2.81l1.66.4a9.18 9.18 0 0 1 -1.87 3.17zm11.77-3.4h-10.02v-5h4v-4.23h1.75v1.27h5.25v1.59h-5.15v1.37h4.15zm-1.74-3.41h-6.61v1.83h6.61zm-4.28 4.35a19.12 19.12 0 0 1 .41 3l-1.74.22a20.92 20.92 0 0 0 -.29-3zm2.89-.18a16 16 0 0 1 1.09 2.86l-1.66.43a17.64 17.64 0 0 0 -1-2.94zm2.89-.28a16.66 16.66 0 0 1 1.89 3l-1.66.63a16 16 0 0 0 -1.77-3.1z"/><path d="m997.77 482.68a11.72 11.72 0 0 0 1.32-.23 3.86 3.86 0 0 0 3.25-3.81 3.53 3.53 0 0 0 -3-3.78 29.66 29.66 0 0 1 -.85 3.88c-.85 2.88-2.08 4.64-3.64 4.64s-2.91-1.75-2.91-4.15a6.36 6.36 0 0 1 6.57-6.11 5.44 5.44 0 0 1 5.76 5.57c0 3-1.84 5.13-5.44 5.68zm-1.11-4.32a22.61 22.61 0 0 0 .76-3.45 4.46 4.46 0 0 0 -3.61 4.13c0 1.44.57 2.15 1.11 2.15s1.16-.9 1.74-2.83z"/><path d="m1018.05 476.68a10.56 10.56 0 0 0 1.31-.09v1.87c-.36 0-.91 0-1.31 0h-3.47a9.18 9.18 0 0 1 -.93 3.7 6.87 6.87 0 0 1 -2.89 2.77l-1.69-1.23a5.88 5.88 0 0 0 2.61-2.06 6.1 6.1 0 0 0 .89-3.18h-4c-.42 0-1 0-1.38.06v-1.89a10.54 10.54 0 0 0 1.38.09zm-7.61-2c-.49 0-1.11 0-1.54 0v-1.78a11 11 0 0 0 1.54.12h4.71a11.7 11.7 0 0 0 1.56-.12v1.86c-.49 0-1.05 0-1.56 0zm7.12-.33a22.42 22.42 0 0 0 -1.14-2l1.15-.47a22.18 22.18 0 0 1 1.14 2zm1.73-.67a17.69 17.69 0 0 0 -1.16-2l1.14-.48a18 18 0 0 1 1.15 2z"/><path d="m1022.29 477.11c.52 0 1.57.09 2.32.09h7.74c.66 0 1.31-.06 1.68-.09v2.26c-.34 0-1.08-.07-1.68-.07h-7.74c-.82 0-1.78 0-2.32.07z"/><path d="m1048.55 474.59a6.47 6.47 0 0 0 -.48 1 16.22 16.22 0 0 1 -2 3.95c.54.33 1 .66 1.39.92l-1.31 1.69c-.35-.31-.81-.65-1.34-1a13.8 13.8 0 0 1 -5.32 3.59l-1.67-1.46a12.1 12.1 0 0 0 5.37-3.22c-1-.64-2-1.23-2.69-1.64l1.22-1.37c.77.39 1.75.93 2.71 1.51a10.4 10.4 0 0 0 1.5-3.07h-4.13a17.05 17.05 0 0 1 -3.81 3.72l-1.55-1.2a13.18 13.18 0 0 0 4.59-4.78 6.36 6.36 0 0 0 .65-1.51l2.09.65c-.35.5-.72 1.16-.89 1.47h2.93a4.65 4.65 0 0 0 1.26-.16z"/></g><path d="m0 0h1050v500h-1050z" fill="none"/></svg>