<svg viewBox="0 0 590 600" xmlns="http://www.w3.org/2000/svg"><path d="m118 27.6 8.58-7.71a13.93 13.93 0 0 0 1.31-1.34 2.56 2.56 0 0 0 .66-1.75 2.12 2.12 0 0 0 -.81-1.76 3 3 0 0 0 -1.91-.64 2.62 2.62 0 0 0 -2 .81 3.32 3.32 0 0 0 -.83 2l-4.68-.34a7.64 7.64 0 0 1 .72-3 6.31 6.31 0 0 1 1.65-2.11 7.06 7.06 0 0 1 2.42-1.26 10.38 10.38 0 0 1 3-.43 9.14 9.14 0 0 1 2.81.43 6.62 6.62 0 0 1 2.28 1.24 5.79 5.79 0 0 1 1.51 2.08 7.08 7.08 0 0 1 .55 2.9 7.56 7.56 0 0 1 -.22 1.92 6.76 6.76 0 0 1 -.61 1.56 7 7 0 0 1 -.92 1.29 15.7 15.7 0 0 1 -1.15 1.16l-6.71 5.77h9.8v4.12h-15.45z"/><path d="m141.88 19.17h1.53a9 9 0 0 0 1.28-.09 3.46 3.46 0 0 0 1.14-.36 2.22 2.22 0 0 0 .83-.75 2.35 2.35 0 0 0 .31-1.26 2 2 0 0 0 -.8-1.65 3 3 0 0 0 -1.95-.66 2.77 2.77 0 0 0 -1.81.59 2.7 2.7 0 0 0 -.93 1.47l-5.15-1.06a7.09 7.09 0 0 1 1.12-2.4 6.16 6.16 0 0 1 1.78-1.64 8.14 8.14 0 0 1 2.29-.92 11.62 11.62 0 0 1 2.67-.3 11 11 0 0 1 2.83.36 6.9 6.9 0 0 1 2.38 1.13 5.64 5.64 0 0 1 1.6 1.87 5.74 5.74 0 0 1 .61 2.74 5.11 5.11 0 0 1 -1 3.15 4.4 4.4 0 0 1 -2.81 1.69v.09a4.36 4.36 0 0 1 1.77.59 4.79 4.79 0 0 1 1.29 1.16 5.26 5.26 0 0 1 .81 1.56 5.86 5.86 0 0 1 .28 1.84 6.23 6.23 0 0 1 -.64 2.9 6.05 6.05 0 0 1 -1.71 2.07 7.21 7.21 0 0 1 -2.53 1.24 11.38 11.38 0 0 1 -3.07.4 9.17 9.17 0 0 1 -5.1-1.37 6.65 6.65 0 0 1 -2.83-4.34l4.93-1.15a3.39 3.39 0 0 0 1 1.87 3.25 3.25 0 0 0 2.26.69 2.93 2.93 0 0 0 2.26-.8 2.88 2.88 0 0 0 .73-2 2.15 2.15 0 0 0 -1.4-2.22 4.7 4.7 0 0 0 -1.4-.29c-.53 0-1-.05-1.57-.05h-1.09z"/><path d="m155.65 29.88a2.89 2.89 0 0 1 .83-2.05 2.79 2.79 0 0 1 .92-.61 3 3 0 0 1 1.12-.22 3.07 3.07 0 0 1 1.13.22 3 3 0 0 1 .92.61 2.71 2.71 0 0 1 .6.92 2.88 2.88 0 0 1 .22 1.13 2.83 2.83 0 0 1 -.22 1.12 2.71 2.71 0 0 1 -.6.92 3 3 0 0 1 -.92.61 3.07 3.07 0 0 1 -1.13.22 3 3 0 0 1 -1.12-.22 2.79 2.79 0 0 1 -.92-.61 2.9 2.9 0 0 1 -.61-.92 2.83 2.83 0 0 1 -.22-1.12z"/><path d="m179.88 14.59h-8.77l-.11 3.41a6.09 6.09 0 0 1 2-.25 9.27 9.27 0 0 1 3.09.5 6.67 6.67 0 0 1 2.41 1.45 6.51 6.51 0 0 1 1.57 2.3 8 8 0 0 1 .56 3 8.22 8.22 0 0 1 -.64 3.34 7.17 7.17 0 0 1 -1.76 2.48 7.67 7.67 0 0 1 -2.67 1.54 10.1 10.1 0 0 1 -3.35.53 8 8 0 0 1 -4.81-1.4 7.2 7.2 0 0 1 -2.65-4.24l4.9-1.13a3.15 3.15 0 0 0 1 1.92 2.88 2.88 0 0 0 2 .73 3.15 3.15 0 0 0 2.39-.93 3.34 3.34 0 0 0 .89-2.37 3.29 3.29 0 0 0 -.45-1.8 3.46 3.46 0 0 0 -1.19-1.12 5.07 5.07 0 0 0 -1.64-.58 11 11 0 0 0 -1.81-.15 12.23 12.23 0 0 0 -2.32.22 15.3 15.3 0 0 0 -2.26.59l.25-12.2h13.35z"/><path d="m184.51 21.7a4.08 4.08 0 0 1 .32-1.6 4.25 4.25 0 0 1 .88-1.31 4.07 4.07 0 0 1 4.5-.88 4.06 4.06 0 0 1 2.17 2.19 4 4 0 0 1 0 3.2 4.1 4.1 0 0 1 -5.38 2.2 4 4 0 0 1 -1.3-.89 4.25 4.25 0 0 1 -.88-1.31 4.08 4.08 0 0 1 -.31-1.6zm6.07 0a1.93 1.93 0 0 0 -.57-1.41 2 2 0 0 0 -2.81 0 1.93 1.93 0 0 0 -.57 1.41 2 2 0 0 0 .57 1.42 2 2 0 0 0 2.81 0 2 2 0 0 0 .57-1.42zm6.62-4.53 1.75 1-8.59 15.08-1.59-.89zm-2.2 11.5a4.08 4.08 0 0 1 .32-1.6 4.25 4.25 0 0 1 .88-1.31 4.06 4.06 0 0 1 5.8 0 4.25 4.25 0 0 1 .88 1.31 4.08 4.08 0 0 1 .32 1.6 4.13 4.13 0 0 1 -.32 1.61 4.18 4.18 0 0 1 -.88 1.32 4.06 4.06 0 0 1 -5.8 0 4.18 4.18 0 0 1 -.88-1.32 4.13 4.13 0 0 1 -.32-1.61zm6.08 0a2 2 0 0 0 -3.38-1.42 2 2 0 0 0 0 2.85 2 2 0 0 0 2.8 0 1.91 1.91 0 0 0 .55-1.43z"/><path d="m295.28 275.52-206.41-18.06a207 207 0 0 1 206.41-189.14z" fill="#66bded" stroke="#fff" stroke-linecap="round" stroke-linejoin="round" stroke-width="6"/><path d="m295.28 275.52 181.22 100.48c-55.5 100.05-181.59 136.21-281.67 80.74-72.83-40.39-113.22-116.29-105.96-199.28z" fill="#3887c1" stroke="#fff" stroke-linecap="round" stroke-linejoin="round" stroke-width="6"/><path d="m295.28 275.52v-207.2c114.43 0 207.2 92.77 207.2 207.2 0 38-7.56 67.22-26 100.45z" fill="#00306e" stroke="#fff" stroke-linecap="round" stroke-linejoin="round" stroke-width="6"/><circle cx="295.72" cy="274.99" fill="#fff" r="136.5"/><path d="m295.72 414.49c-76.92 0-139.5-62.58-139.5-139.5s62.58-139.5 139.5-139.5 139.5 62.58 139.5 139.5-62.58 139.5-139.5 139.5zm0-273c-73.61 0-133.5 59.89-133.5 133.5s59.89 133.5 133.5 133.5 133.5-59.89 133.5-133.49-59.88-133.51-133.5-133.51z" fill="#fff"/><path d="m223.87 273.59a22.94 22.94 0 0 0 -5.64-3.24l2.43-3.42a23.77 23.77 0 0 1 5.82 2.89zm4.29 4.1c-1.56 3.33-3.3 6.76-5.07 9.9l-4-2.83a93.61 93.61 0 0 0 5.57-9.9zm-2.49-12.5a22.08 22.08 0 0 0 -5.54-3.33l2.43-3.33a23.42 23.42 0 0 1 5.72 3zm15.18 11.26a14.35 14.35 0 0 0 7.38 7.62 17.35 17.35 0 0 0 -3.18 4c-3.76-1.92-6.25-5.19-8-9.33a15.76 15.76 0 0 1 -7.47 9.4 18.84 18.84 0 0 0 -3.8-3.21 13.52 13.52 0 0 0 7.07-8.46h-5.32v-4.23h6c.06-.93.09-1.87.09-2.8v-2.09h-4.62v-4.25h4.66v-4.66h4.52v4.66h7.49v9.12h2.21v4.23zm-2.7-7c0 .9 0 1.84-.07 2.77h3.15v-4.89h-3.08z" fill="#00306e"/><path d="m266.55 283.11a26.38 26.38 0 0 0 2.71.12c2 0 7 0 9.45-.09a15.44 15.44 0 0 0 -1.58 4.6h-8.13c-5.42 0-9.49-.87-12.29-4.88a14.89 14.89 0 0 1 -3.89 5.35 26.49 26.49 0 0 0 -3.74-3.11c3.33-2.37 4.8-6.63 5.26-11.82l4.73.46a34.11 34.11 0 0 1 -.65 3.86 8 8 0 0 0 3.39 4.2v-9.74h-6v-4.29h16.68v4.29h-5.91v3.18h8.15v4.23h-8.15zm-11.48-13.32h-4.45v-8.4h11.11v-2.89h4.85v2.89h11.2v8.4h-4.67v-4.14h-18z" fill="#00306e"/><path d="m304.66 283.26c.8 0 1-.53 1.09-4a13.4 13.4 0 0 0 4.1 1.77c-.43 5.11-1.62 6.51-4.76 6.51h-3.17c-3.92 0-4.82-1.4-4.82-5.45v-6.72h-3.74c-.65 5.26-2.27 9.93-9.46 12.79a14 14 0 0 0 -2.83-4c6-2 7-5.22 7.5-8.77h-7v-4.39h11.73v-4.38h-4.76a20.15 20.15 0 0 1 -2.24 4 24.39 24.39 0 0 0 -4-2c2-2.52 3.42-6.75 4-9.92l4.61.9c-.25.87-.5 1.77-.78 2.67h3.17v-3.85h4.61v3.85h9.11v4.33h-9.11v4.4h11.69v4.36h-8v6.69c0 1.09.12 1.21 1 1.21z" fill="#00306e"/><path d="m320.77 281.18 5.75-1.15.44 4.45c-4.6 1-9.61 2-13.47 2.86l-1.25-4.67c1.12-.15 2.43-.37 3.83-.62v-23.15h4.7v8.59h5.75v4.42h-5.75zm15.62 2.05c1 0 1.21-1.06 1.43-5.16a13.37 13.37 0 0 0 4.23 2c-.44 5.44-1.62 7.62-5.2 7.62h-3.76c-3.95 0-5.07-1.49-5.07-6.5v-22.29h4.7v9.46a58.79 58.79 0 0 0 5.75-3.11l3.08 4c-2.77 1.28-5.94 2.49-8.83 3.52v8.43c0 1.83.09 2.05 1.12 2.05z" fill="#00306e"/><path d="m361.24 278.66h11.95v4.17h-11.95v5.17h-4.66v-5.13h-11.7v-4.17h11.7v-1.7l-4.14.31-.34-2c-1.9.93-3.89 1.83-5.57 2.58l-2.12-3.64c2-.59 5-1.68 7.9-2.74l.53 2.18 1.93-.06c.44-.41.87-.84 1.34-1.31-1.15-.9-2.61-2-3.83-2.77l-2.42 2a26.37 26.37 0 0 0 -4.58-3.45l3-2.4a31.63 31.63 0 0 1 4.39 2.87l1.43-1.78.65.41c.4-.62.75-1.25 1.09-1.87h-9.84v-4.07h10.61v-2.74h4.66v2.74h10.92v4.07h-12.5l.52.19c-.93 1.18-1.89 2.39-2.76 3.42.4.25.74.53 1.08.78 1-1.15 1.93-2.34 2.65-3.36l3.48 1.55c-1.15 1.31-2.42 2.65-3.73 3.95l2.77-1.15c.47.69 1 1.43 1.43 2.21l2-1.58a42.06 42.06 0 0 1 6.23 3.85l-3.27 2.68a26.39 26.39 0 0 0 -3.86-2.83 11.86 11.86 0 0 1 .53 1.4l-3.39 1.49a15 15 0 0 0 -.5-1.46l-5.6.47h4zm.06-5.38a9.43 9.43 0 0 0 -.71-1.16c-.44.41-.87.85-1.31 1.25zm3.52-3.89a26.11 26.11 0 0 0 3.83-4l4.07 1.89a48.37 48.37 0 0 1 -4.6 3.8z" fill="#00306e"/><path d="m386.25 301.24h-182v-55.3h182zm-180-2h178v-51.3h-178z" fill="#00306e"/><path d="m26.41 421.41a14.5 14.5 0 0 1 -4.27 5.53 40.73 40.73 0 0 0 7.71 1.29 15.57 15.57 0 0 0 -2.2 3.38 30.65 30.65 0 0 1 -9.27-2.4 32.86 32.86 0 0 1 -9.38 2.47 12.08 12.08 0 0 0 -2.1-3.21 35.08 35.08 0 0 0 7.88-1.41 16.39 16.39 0 0 1 -3.29-3.21l1.16-.47h-1.28v-3.28h12l.63-.1 1.92 1.14v-2.42h-15.1v2.52h-3.36v-5.64h3.34a17 17 0 0 0 -.89-2.12l2-.55c-1.16.05-2.32.08-3.43.1a11.33 11.33 0 0 0 -.79-3 132.58 132.58 0 0 0 18.7-1.63l2.39 2.92c-2.74.49-5.88.89-9.11 1.16a11.06 11.06 0 0 1 .94 2.79l-1.54.37h3.64a26.9 26.9 0 0 0 1.21-3.41l3.85.84c-.49.92-1 1.78-1.48 2.57h3.11v5.61h-3.33zm-8.27-8.85c-1.66.13-3.31.23-4.94.3a10.81 10.81 0 0 1 1.08 2.45l-1 .29h4a16.13 16.13 0 0 0 -.79-2.64zm-2.82 10.82a12.57 12.57 0 0 0 3 2.1 10.59 10.59 0 0 0 2.57-2.1z"/><path d="m42 415.43h-10.38v-2.79h10.38zm-1.06 15.32h-5.1v.88h-3.08v-8.57h8.15zm-8-14.58h8.06v2.67h-8.14zm0 3.41h8.06v2.67h-8.14zm8.06-7.66h-8v-2.67h8zm-5.19 13.93v2.15h1.93v-2.1zm15.52 2.5c.57 0 .69-.69.79-3.51a9.64 9.64 0 0 0 3.26 1.48c-.35 4-1.24 5.44-3.68 5.44h-2.34c-2.84 0-3.61-1.11-3.61-4.79v-4.7l-3.68.59-.59-3.48 4.27-.67v-4.54c-1 .2-2 .34-2.91.49a12.88 12.88 0 0 0 -1.14-3 39.88 39.88 0 0 0 9.81-2.84l2.94 2.92a41.27 41.27 0 0 1 -5.07 1.65v4.8l5.17-.79.59 3.38-5.76.94v5.28c0 1.23.08 1.38.65 1.38z"/><path d="m61.34 418.47v13.53h-3.51v-22.57h9.88v9zm0-6.55v.84h3v-.84zm3 4v-.92h-3v1zm7.88 10.72v4.89h-3.13v-4.89h-1.73a8.13 8.13 0 0 1 -3.08 5.38 12.38 12.38 0 0 0 -2.28-2.02 5.33 5.33 0 0 0 2.28-3.36h-2.13v-2.89h2.27v-1.41h-2v-2.79h11.86v2.79h-2v1.41h2.4v2.89zm-3.14-2.89v-1.41h-1.62v1.41zm10 4.2c0 1.7-.27 2.67-1.26 3.26a8.21 8.21 0 0 1 -4.23.67 12 12 0 0 0 -1-3.54c.94.05 2.12.05 2.49.05s.5-.15.5-.49v-9.39h-6.58v-9.11h10.05zm-6.68-16.03v.84h3.12v-.84zm3.12 4.1v-1h-3.12v1z"/><path d="m97.75 420.07v2.3h4.94v3.29h-4.94v1.92c0 1 .07 1.11.66 1.11h1.36c.57 0 .69-.46.79-2.61a10.37 10.37 0 0 0 3.21 1.38c-.34 3.33-1.26 4.4-3.63 4.4h-2.42c-3 0-3.73-1.07-3.73-4.25v-1.95h-2.67c-.59 2.57-2.29 5-6.74 6.44a13.41 13.41 0 0 0 -2.27-2.86c3-.89 4.44-2.18 5.13-3.58h-4.44v-3.29h5.06v-2.3h-1.8v-.74a18.06 18.06 0 0 1 -3.06 1.85 13.32 13.32 0 0 0 -2.2-2.69 14.32 14.32 0 0 0 3.61-2.2c-.59-.56-1.46-1.28-2.13-1.83l2.25-1.85c.59.42 1.38 1 2 1.51a15.35 15.35 0 0 0 1.14-1.63h-4.4v-3.06h6.15l.62-.13 2.4 1.09a17.91 17.91 0 0 1 -3.51 6.3h7.68a24.15 24.15 0 0 1 -4-7.24l3.24-.91a15.94 15.94 0 0 0 1.06 2.34 18 18 0 0 0 1.72-1.88l2.7 1.87c-1 .84-2 1.68-2.9 2.35a10.21 10.21 0 0 0 .82.94 26 26 0 0 0 2.35-2.35l2.62 1.83a36.77 36.77 0 0 1 -2.94 2.37 15.34 15.34 0 0 0 3.4 1.93 13.84 13.84 0 0 0 -2.49 3.11 15.72 15.72 0 0 1 -2.77-1.68v.69zm-3.76 0h-2.37v2.3h2.38z"/><path d="m402.62 12.71v19.29h-3.62v-1.1h-10.42v1.1h-3.44v-19.29h6a29.11 29.11 0 0 0 .49-3l4.17.42c-.33.89-.71 1.78-1 2.55zm-14 3.26v1.8h10.38v-1.77zm0 4.94v1.82h10.38v-1.82zm10.38 6.81v-1.85h-10.42v1.85z"/><path d="m414.44 25.8c-.42-.59-1-1.34-1.62-2.08v8.28h-3.37v-7.54a18.15 18.15 0 0 1 -2.5 1.88 14.65 14.65 0 0 0 -1.57-3.28 15.82 15.82 0 0 0 6.13-5.92h-5.22v-3.07h3.16v-4.28h3.37v4.28h.52l.58-.11 1.9 1.24a23.2 23.2 0 0 1 -2.6 5c1.12.91 2.81 2.41 3.28 2.88zm13.76 2.2v3.35h-13.39v-3.35h5.13v-7.94h-4.15v-3.27h4.15v-6.79h3.51v6.77h4.17v3.27h-4.17v7.96z"/><path d="m448 15.43a15.1 15.1 0 0 0 2.84-.19v3.76c-.66-.07-1.48-.07-2.81-.07h-1.27v.75c0 5.54-1.43 9.27-7.25 11.82l-3.05-2.86c4.69-1.54 6.58-3.58 6.58-8.87v-.84h-4.94v2.83c0 1.15.07 2.06.11 2.64h-3.95a22.7 22.7 0 0 0 .14-2.64v-2.84h-1.69c-1.26 0-2 0-2.64.09v-3.84a13.28 13.28 0 0 0 2.64.26h1.69v-1.94a18.3 18.3 0 0 0 -.17-2.34h4a18.25 18.25 0 0 0 -.16 2.36v1.92h4.93v-2.2a15.86 15.86 0 0 0 -.14-2.32h4a18.7 18.7 0 0 0 -.17 2.32v2.2z"/><path d="m453.58 18.54c.94.07 2.91.17 4.05.17h12.43c1.06 0 2.2-.12 2.88-.17v4.46c-.61 0-1.92-.14-2.88-.14h-12.43c-1.33 0-3.09.07-4.05.14z"/><path d="m480.43 25.85c0 .91.44 1.14 1.45 1.33a19.55 19.55 0 0 0 2.48.12 40.2 40.2 0 0 0 8.24-.85v4.15a71.8 71.8 0 0 1 -8.48.47 27.21 27.21 0 0 1 -4-.28c-2.16-.4-3.45-1.67-3.45-3.77v-12.67c0-.51-.07-1.94-.18-2.74h4.16a24.65 24.65 0 0 0 -.18 2.74v3.94a67.73 67.73 0 0 0 7.63-2.46 18.61 18.61 0 0 0 2.83-1.38l1.5 3.58c-1 .42-2.2.91-3 1.22a93 93 0 0 1 -9 2.75zm9.66-11.24a31.39 31.39 0 0 0 -1.8-3.25l2.2-.89c.59.86 1.41 2.39 1.83 3.2zm3.28-5.27a33.18 33.18 0 0 1 1.85 3.19l-2.2.93a26.63 26.63 0 0 0 -1.85-3.23z"/><path d="m515.44 13.79a13.07 13.07 0 0 0 -1 1.71 36.49 36.49 0 0 1 -3.54 6.18 63.29 63.29 0 0 1 6.37 6.53l-3.21 2.79a46.62 46.62 0 0 0 -5.6-6.41 31.48 31.48 0 0 1 -8.59 6.41l-2.95-3a26.27 26.27 0 0 0 9.58-6.57 17.23 17.23 0 0 0 3.27-5.3h-7.28c-1.05 0-2.34.15-3 .19v-4a29.48 29.48 0 0 0 3 .18h7.82a9.83 9.83 0 0 0 2.81-.35z"/><path d="m523.39 19.17v12.83h-3.32v-21.39h9.36v8.56zm0-6.2v.8h2.86v-.77zm2.86 3.82v-.87h-2.86v.87zm7.46 10.21v4.63h-3v-4.63h-1.61a7.74 7.74 0 0 1 -2.92 5.1 11.11 11.11 0 0 0 -2.18-1.97 5 5 0 0 0 2.18-3.13h-2v-2.79h2.16v-1.34h-1.85v-2.64h11.19v2.64h-1.95v1.34h2.27v2.79zm-3-2.74v-1.39h-1.51v1.34zm9.43 4c0 1.61-.25 2.52-1.19 3.09a7.76 7.76 0 0 1 -4 .63 11.79 11.79 0 0 0 -1-3.35c.89.05 2 .05 2.37.05s.47-.14.47-.47v-8.96h-6.18v-8.64h9.52zm-6.26-15.26v.8h3v-.8zm3 3.89v-.94h-3v.94z"/><path d="m558.21 20.7v2.17h4.69v3.13h-4.69v1.82c0 .94.07 1.06.64 1.06h1.28c.54 0 .66-.45.75-2.49a9.83 9.83 0 0 0 3 1.32c-.33 3.16-1.2 4.16-3.45 4.16h-2.29c-2.86 0-3.53-1-3.53-4v-1.87h-2.53c-.56 2.43-2.18 4.72-6.39 6.11a12.14 12.14 0 0 0 -2.16-2.72c2.84-.84 4.22-2.06 4.87-3.39h-4.21v-3.13h4.81v-2.17h-1.71v-.7a17.11 17.11 0 0 1 -2.9 1.76 12.87 12.87 0 0 0 -2.06-2.55 14.56 14.56 0 0 0 3.42-2.08c-.57-.54-1.39-1.22-2-1.74l2.13-1.75c.56.4 1.31.93 1.9 1.43a14.83 14.83 0 0 0 1.08-1.55h-4.17v-2.9h5.83l.58-.12 2.27 1a16.84 16.84 0 0 1 -3.32 6h7.28a22.56 22.56 0 0 1 -3.82-6.86l3.07-.86a14.37 14.37 0 0 0 1 2.22 19.59 19.59 0 0 0 1.63-1.78l2.58 1.78c-.91.8-1.87 1.59-2.73 2.22a8 8 0 0 0 .77.89 24.44 24.44 0 0 0 2.22-2.22l2.48 1.73a35.13 35.13 0 0 1 -2.78 2.25 14.79 14.79 0 0 0 3.25 1.81 13.24 13.24 0 0 0 -2.37 2.95 14.75 14.75 0 0 1 -2.63-1.63v.66zm-3.55 0h-2.25v2.17h2.25z"/><path d="m70.4 17.69a3.13 3.13 0 0 0 -1.41-1 5.26 5.26 0 0 0 -1.68-.31 4.47 4.47 0 0 0 -1 .11 3.69 3.69 0 0 0 -.93.34 2.11 2.11 0 0 0 -.71.61 1.6 1.6 0 0 0 -.28.93 1.53 1.53 0 0 0 .66 1.34 6.34 6.34 0 0 0 1.65.79c.67.22 1.38.44 2.14.66a9 9 0 0 1 2.15.93 5.07 5.07 0 0 1 1.65 1.61 4.86 4.86 0 0 1 .65 2.7 6.22 6.22 0 0 1 -.6 2.81 5.64 5.64 0 0 1 -1.62 2 7 7 0 0 1 -2.38 1.18 10.6 10.6 0 0 1 -2.85.38 10.39 10.39 0 0 1 -3.49-.57 8.8 8.8 0 0 1 -3-1.86l3-3.33a4.46 4.46 0 0 0 1.66 1.35 4.68 4.68 0 0 0 2.06.48 4.83 4.83 0 0 0 1-.12 3.84 3.84 0 0 0 1-.37 2.1 2.1 0 0 0 .69-.63 1.58 1.58 0 0 0 .25-.9 1.65 1.65 0 0 0 -.66-1.38 6.29 6.29 0 0 0 -1.68-.86c-.68-.24-1.4-.47-2.19-.71a9.5 9.5 0 0 1 -2.18-1 5.17 5.17 0 0 1 -1.68-1.58 4.48 4.48 0 0 1 -.62-2.53 5.79 5.79 0 0 1 .64-2.76 5.88 5.88 0 0 1 1.63-2 7.22 7.22 0 0 1 2.37-1.18 9.43 9.43 0 0 1 2.75-.4 10.85 10.85 0 0 1 3.17.46 7.31 7.31 0 0 1 2.76 1.56z"/><path d="m76.89 13h13.11v3.9h-8.85v3.6h8.38v3.94h-8.38v3.93h9.37v3.93h-13.63z"/><path d="m104 17.69a3 3 0 0 0 -1.4-1 5.26 5.26 0 0 0 -1.68-.31 4.64 4.64 0 0 0 -1 .11 4 4 0 0 0 -.93.34 2.21 2.21 0 0 0 -.71.61 1.59 1.59 0 0 0 -.27.93 1.53 1.53 0 0 0 .66 1.34 6.18 6.18 0 0 0 1.65.79c.66.22 1.38.44 2.14.66a9 9 0 0 1 2.15.93 5.07 5.07 0 0 1 1.65 1.61 5 5 0 0 1 .65 2.7 6.22 6.22 0 0 1 -.6 2.81 5.64 5.64 0 0 1 -1.62 2 7.08 7.08 0 0 1 -2.38 1.18 10.6 10.6 0 0 1 -2.85.38 10.45 10.45 0 0 1 -3.5-.57 8.86 8.86 0 0 1 -3-1.86l3.04-3.34a4.51 4.51 0 0 0 1.65 1.35 4.71 4.71 0 0 0 2.06.48 4.85 4.85 0 0 0 1.06-.12 3.84 3.84 0 0 0 1-.37 2.06 2.06 0 0 0 .68-.63 1.51 1.51 0 0 0 .26-.9 1.63 1.63 0 0 0 -.67-1.38 6.07 6.07 0 0 0 -1.67-.86c-.68-.24-1.41-.47-2.19-.71a9.5 9.5 0 0 1 -2.18-1 5 5 0 0 1 -1.68-1.58 4.48 4.48 0 0 1 -.67-2.59 5.78 5.78 0 0 1 .56-2.69 6 6 0 0 1 1.64-2 7.17 7.17 0 0 1 2.36-1.18 9.45 9.45 0 0 1 2.76-.4 10.85 10.85 0 0 1 3.17.46 7.19 7.19 0 0 1 2.75 1.56z"/><path d="m44.2 460.53h-9.64v-3.93l9-13.73h5.14v13.73h2.84v3.93h-2.84v4.47h-4.5zm0-11.55h-.06l-4.9 7.62h5z"/><path d="m59 451.57h1.53a8.87 8.87 0 0 0 1.28-.09 3.46 3.46 0 0 0 1.14-.36 2.06 2.06 0 0 0 .83-.75 2.35 2.35 0 0 0 .31-1.26 2 2 0 0 0 -.8-1.65 3 3 0 0 0 -2-.66 2.69 2.69 0 0 0 -2.74 2.06l-5.15-1.06a7.09 7.09 0 0 1 1.12-2.45 6.16 6.16 0 0 1 1.78-1.64 8.08 8.08 0 0 1 2.3-.92 12 12 0 0 1 5.49.06 6.9 6.9 0 0 1 2.45 1.15 5.53 5.53 0 0 1 1.64 1.92 5.74 5.74 0 0 1 .61 2.74 5.11 5.11 0 0 1 -1 3.15 4.4 4.4 0 0 1 -2.79 1.67v.09a4.36 4.36 0 0 1 1.77.59 4.79 4.79 0 0 1 1.29 1.16 5 5 0 0 1 .81 1.56 5.86 5.86 0 0 1 .28 1.84 6.23 6.23 0 0 1 -.64 2.9 6.07 6.07 0 0 1 -1.71 2.08 7.37 7.37 0 0 1 -2.53 1.23 11.38 11.38 0 0 1 -3.07.4 9.17 9.17 0 0 1 -5.1-1.37 6.65 6.65 0 0 1 -2.83-4.34l4.93-1.15a3.39 3.39 0 0 0 1 1.87 3.27 3.27 0 0 0 2.26.69 2.93 2.93 0 0 0 2.26-.8 2.88 2.88 0 0 0 .73-2 2.34 2.34 0 0 0 -.39-1.45 2.28 2.28 0 0 0 -1-.77 4.64 4.64 0 0 0 -1.4-.29c-.52 0-1-.05-1.56-.05h-1.1z"/><path d="m72.17 462.28a2.88 2.88 0 0 1 .22-1.13 2.6 2.6 0 0 1 .61-.92 2.69 2.69 0 0 1 .92-.61 3 3 0 0 1 1.12-.21 3 3 0 0 1 1.12.21 2.85 2.85 0 0 1 1.75 2.66 2.83 2.83 0 0 1 -.22 1.12 2.78 2.78 0 0 1 -1.53 1.53 3 3 0 0 1 -1.12.22 3 3 0 0 1 -1.12-.22 2.69 2.69 0 0 1 -.92-.61 2.6 2.6 0 0 1 -.61-.92 2.83 2.83 0 0 1 -.22-1.12z"/><path d="m81.48 460 8.58-7.71a13.93 13.93 0 0 0 1.31-1.29 2.56 2.56 0 0 0 .63-1.8 2.12 2.12 0 0 0 -.81-1.76 3 3 0 0 0 -1.91-.64 2.62 2.62 0 0 0 -2 .81 3.26 3.26 0 0 0 -.83 2l-4.68-.34a7.64 7.64 0 0 1 .72-3 6.31 6.31 0 0 1 1.65-2.11 7.06 7.06 0 0 1 2.42-1.26 10.38 10.38 0 0 1 3-.42 9.14 9.14 0 0 1 2.81.42 6.62 6.62 0 0 1 2.28 1.24 5.79 5.79 0 0 1 1.51 2.08 7.08 7.08 0 0 1 .55 2.9 8 8 0 0 1 -.22 1.92 6.76 6.76 0 0 1 -.61 1.56 7 7 0 0 1 -.92 1.29 15.7 15.7 0 0 1 -1.15 1.16l-6.71 5.77h9.79v4.18h-15.41z"/><path d="m100.4 454.1a4.08 4.08 0 0 1 .32-1.6 4.25 4.25 0 0 1 .88-1.31 4.07 4.07 0 0 1 4.5-.88 4.06 4.06 0 0 1 2.17 2.19 4.16 4.16 0 0 1 0 3.2 4.1 4.1 0 0 1 -5.37 2.2 4 4 0 0 1 -1.3-.89 4.25 4.25 0 0 1 -.88-1.31 4.08 4.08 0 0 1 -.32-1.6zm6.07 0a2 2 0 0 0 -.57-1.41 2 2 0 0 0 -2.81 0 2 2 0 0 0 0 2.83 2 2 0 0 0 2.81 0 2 2 0 0 0 .57-1.42zm6.62-4.53 1.74 1-8.58 15.08-1.59-.89zm-2.23 11.5a4.08 4.08 0 0 1 .32-1.6 4.25 4.25 0 0 1 .88-1.31 4.06 4.06 0 0 1 5.8 0 4.25 4.25 0 0 1 .88 1.31 4.08 4.08 0 0 1 .32 1.6 4.13 4.13 0 0 1 -.32 1.61 4.18 4.18 0 0 1 -.88 1.32 4.06 4.06 0 0 1 -5.8 0 4.18 4.18 0 0 1 -.88-1.32 4.13 4.13 0 0 1 -.32-1.61zm6.08 0a2 2 0 1 0 -4 0 1.91 1.91 0 0 0 .58 1.43 2 2 0 0 0 2.8 0 1.91 1.91 0 0 0 .62-1.43z"/><path d="m490.61 51.47h1.52a8.87 8.87 0 0 0 1.28-.09 3.46 3.46 0 0 0 1.14-.36 2 2 0 0 0 .83-.75 2.26 2.26 0 0 0 .31-1.26 2 2 0 0 0 -.79-1.65 3 3 0 0 0 -1.9-.66 2.75 2.75 0 0 0 -1.81.59 2.72 2.72 0 0 0 -.94 1.47l-5.15-1.06a7.28 7.28 0 0 1 1.12-2.45 6.29 6.29 0 0 1 1.78-1.64 8.08 8.08 0 0 1 2.3-.92 12 12 0 0 1 5.49.06 6.9 6.9 0 0 1 2.38 1.13 5.53 5.53 0 0 1 1.64 1.92 5.74 5.74 0 0 1 .61 2.74 5.11 5.11 0 0 1 -1 3.15 4.4 4.4 0 0 1 -2.8 1.69v.09a4.37 4.37 0 0 1 1.76.59 4.88 4.88 0 0 1 2.1 2.72 5.86 5.86 0 0 1 .29 1.84 6.35 6.35 0 0 1 -.64 2.9 6.21 6.21 0 0 1 -1.72 2.08 7.37 7.37 0 0 1 -2.53 1.23 11.33 11.33 0 0 1 -3.07.4 9.17 9.17 0 0 1 -5.1-1.37 6.65 6.65 0 0 1 -2.83-4.34l4.93-1.15a3.39 3.39 0 0 0 1 1.87 3.27 3.27 0 0 0 2.26.69 2.93 2.93 0 0 0 2.26-.8 2.89 2.89 0 0 0 .74-2 2.34 2.34 0 0 0 -.39-1.45 2.31 2.31 0 0 0 -1-.77 4.57 4.57 0 0 0 -1.4-.29c-.52 0-1 0-1.56 0h-1.09z"/><path d="m508.64 51.47h1.53a9 9 0 0 0 1.28-.09 3.46 3.46 0 0 0 1.14-.36 2.06 2.06 0 0 0 .83-.75 2.35 2.35 0 0 0 .31-1.26 2 2 0 0 0 -.8-1.65 3 3 0 0 0 -1.93-.66 2.77 2.77 0 0 0 -1.81.59 2.7 2.7 0 0 0 -.93 1.47l-5.15-1.06a7.09 7.09 0 0 1 1.12-2.45 6.16 6.16 0 0 1 1.77-1.64 8.14 8.14 0 0 1 2.29-.92 11.62 11.62 0 0 1 2.71-.29 11.49 11.49 0 0 1 2.83.35 6.9 6.9 0 0 1 2.38 1.13 5.64 5.64 0 0 1 1.64 1.92 5.74 5.74 0 0 1 .61 2.74 5.17 5.17 0 0 1 -1 3.15 4.4 4.4 0 0 1 -2.81 1.69v.09a4.36 4.36 0 0 1 1.77.59 4.79 4.79 0 0 1 1.29 1.16 5.26 5.26 0 0 1 .81 1.56 5.86 5.86 0 0 1 .28 1.84 6.07 6.07 0 0 1 -2.35 5 7.37 7.37 0 0 1 -2.53 1.23 11.38 11.38 0 0 1 -3.07.4 9.17 9.17 0 0 1 -5.1-1.37 6.65 6.65 0 0 1 -2.83-4.34l4.93-1.15a3.33 3.33 0 0 0 1 1.87 3.25 3.25 0 0 0 2.26.69 2.93 2.93 0 0 0 2.26-.8 2.88 2.88 0 0 0 .73-2 2.15 2.15 0 0 0 -1.4-2.22 4.7 4.7 0 0 0 -1.41-.29c-.52 0-1 0-1.56 0h-1.09z"/><path d="m521.79 62.18a2.88 2.88 0 0 1 .22-1.13 2.71 2.71 0 0 1 .6-.92 2.9 2.9 0 0 1 .92-.61 3.06 3.06 0 0 1 1.13-.21 3 3 0 0 1 1.12.21 2.85 2.85 0 0 1 1.75 2.66 2.83 2.83 0 0 1 -.22 1.12 2.78 2.78 0 0 1 -1.53 1.53 3 3 0 0 1 -1.12.22 3.07 3.07 0 0 1 -1.13-.22 2.9 2.9 0 0 1 -.92-.61 2.71 2.71 0 0 1 -.6-.92 2.83 2.83 0 0 1 -.22-1.12z"/><path d="m536 51.47h1.53a9 9 0 0 0 1.28-.09 3.46 3.46 0 0 0 1.19-.38 2.06 2.06 0 0 0 .83-.75 2.35 2.35 0 0 0 .31-1.26 2 2 0 0 0 -.8-1.65 3 3 0 0 0 -1.95-.66 2.77 2.77 0 0 0 -1.81.59 2.7 2.7 0 0 0 -.93 1.47l-5.15-1.06a7.09 7.09 0 0 1 1.12-2.45 6.16 6.16 0 0 1 1.78-1.64 8.14 8.14 0 0 1 2.29-.92 11.62 11.62 0 0 1 2.67-.29 11.35 11.35 0 0 1 2.82.35 7 7 0 0 1 2.39 1.13 5.64 5.64 0 0 1 1.64 1.92 5.86 5.86 0 0 1 .61 2.74 5.17 5.17 0 0 1 -1 3.15 4.4 4.4 0 0 1 -2.82 1.71v.09a4.27 4.27 0 0 1 1.76.59 4.83 4.83 0 0 1 1.3 1.16 5.26 5.26 0 0 1 .81 1.56 5.86 5.86 0 0 1 .28 1.84 6.07 6.07 0 0 1 -2.35 5 7.37 7.37 0 0 1 -2.53 1.23 11.38 11.38 0 0 1 -3.07.4 9.23 9.23 0 0 1 -5.11-1.37 6.68 6.68 0 0 1 -2.82-4.34l4.93-1.15a3.33 3.33 0 0 0 1 1.87 3.25 3.25 0 0 0 2.26.69 2.93 2.93 0 0 0 2.26-.8 2.88 2.88 0 0 0 .73-2 2.15 2.15 0 0 0 -1.4-2.22 4.7 4.7 0 0 0 -1.41-.29c-.52 0-1 0-1.56 0h-1.08z"/><path d="m548.77 54a3.92 3.92 0 0 1 .33-1.6 4.06 4.06 0 0 1 2.17-2.19 4.09 4.09 0 0 1 4.5.88 4.25 4.25 0 0 1 .88 1.31 4.16 4.16 0 0 1 0 3.2 4.25 4.25 0 0 1 -.88 1.31 4 4 0 0 1 -1.3.89 4.09 4.09 0 0 1 -5.37-2.2 3.92 3.92 0 0 1 -.33-1.6zm6.08 0a2 2 0 0 0 -.57-1.41 1.91 1.91 0 0 0 -1.41-.59 1.89 1.89 0 0 0 -1.4.59 2 2 0 0 0 0 2.83 1.92 1.92 0 0 0 1.4.58 2 2 0 0 0 2-2zm6.61-4.53 1.75 1-8.59 15.08-1.58-.9zm-2.22 11.53a3.91 3.91 0 0 1 .32-1.6 4.12 4.12 0 0 1 2.17-2.2 4.19 4.19 0 0 1 3.21 0 4.18 4.18 0 0 1 1.3.89 4.41 4.41 0 0 1 .87 1.31 4.08 4.08 0 0 1 .32 1.6 4.13 4.13 0 0 1 -.32 1.61 4.33 4.33 0 0 1 -.87 1.32 4.18 4.18 0 0 1 -1.3.89 4.19 4.19 0 0 1 -3.21 0 4.07 4.07 0 0 1 -1.3-.89 4.19 4.19 0 0 1 -1.19-2.93zm6.07 0a1.93 1.93 0 0 0 -.57-1.41 2 2 0 0 0 -2.81 0 1.93 1.93 0 0 0 -.57 1.41 2 2 0 0 0 .57 1.44 2 2 0 0 0 2.81 0 2 2 0 0 0 .57-1.44z"/><path d="m234.87 90.5-25.33-44.21h-154.64v-2h155.81l25.89 45.22z" fill="#333"/><path d="m366.75 91.66-1.5-1.32 16.3-18.34h185.45v2h-184.55z" fill="#333"/><path d="m126.84 479.92h-124.74v-2h123.1l15.72-80.07 1.96.39z" fill="#333"/><g fill="#999"><path d="m308.35 527.48 5.08-5.08.45.45-5.08 5.08 5.08 5.08-.45.45-5.08-5.09-5.1 5.1-.44-.45 5.09-5.09-5.08-5.08.45-.45zm-3.23.45a1.16 1.16 0 1 1 -1.16-1.16 1.17 1.17 0 0 1 1.16 1.16zm3.23-3.24a1.16 1.16 0 1 1 1.15-1.15 1.16 1.16 0 0 1 -1.15 1.15zm0 6.47a1.16 1.16 0 1 1 -1.15 1.16 1.16 1.16 0 0 1 1.15-1.16zm3.23-3.23a1.16 1.16 0 1 1 2.31 0 1.16 1.16 0 0 1 -2.31 0z"/><path d="m321.51 531.31 5.33-5.16.49-.49a5.83 5.83 0 0 0 .46-.55 4 4 0 0 0 .33-.61 1.75 1.75 0 0 0 .14-.67 1.55 1.55 0 0 0 -.17-.76 1.59 1.59 0 0 0 -.43-.56 1.79 1.79 0 0 0 -.63-.36 2.19 2.19 0 0 0 -.77-.13 2 2 0 0 0 -1.43.51 2.07 2.07 0 0 0 -.68 1.35l-2.45-.19a4.44 4.44 0 0 1 .46-1.68 3.76 3.76 0 0 1 1-1.21 4.26 4.26 0 0 1 1.4-.74 5.59 5.59 0 0 1 1.72-.25 6.1 6.1 0 0 1 1.74.24 4 4 0 0 1 1.4.72 3.37 3.37 0 0 1 1 1.21 4.56 4.56 0 0 1 -.25 4 8.66 8.66 0 0 1 -1.52 1.8l-4.25 3.93h6.36v2.1h-9.19z"/><path d="m333.36 526.91a13 13 0 0 1 .26-2.78 7.93 7.93 0 0 1 .69-1.94 4.63 4.63 0 0 1 1-1.26 4.11 4.11 0 0 1 1.09-.72 4.19 4.19 0 0 1 1.07-.32 5.1 5.1 0 0 1 1.8 0 4.31 4.31 0 0 1 1.07.32 3.91 3.91 0 0 1 1.08.72 4.27 4.27 0 0 1 1 1.26 7.18 7.18 0 0 1 .69 1.94 15 15 0 0 1 0 5.56 7.18 7.18 0 0 1 -.69 1.94 4.46 4.46 0 0 1 -1 1.27 4.1 4.1 0 0 1 -1.08.71 3.92 3.92 0 0 1 -1.07.32 5.1 5.1 0 0 1 -1.8 0 3.82 3.82 0 0 1 -1.07-.32 4.32 4.32 0 0 1 -1.09-.71 4.86 4.86 0 0 1 -1-1.27 7.93 7.93 0 0 1 -.69-1.94 13 13 0 0 1 -.26-2.78zm2.33 0a14 14 0 0 0 .09 1.48 6.51 6.51 0 0 0 .36 1.61 3.42 3.42 0 0 0 .79 1.28 2.14 2.14 0 0 0 2.8 0 3.55 3.55 0 0 0 .79-1.28 7 7 0 0 0 .36-1.61 12.21 12.21 0 0 0 0-3 6.79 6.79 0 0 0 -.36-1.6 3.38 3.38 0 0 0 -.79-1.28 2.11 2.11 0 0 0 -2.8 0 3.27 3.27 0 0 0 -.79 1.28 6.33 6.33 0 0 0 -.36 1.6 14 14 0 0 0 -.09 1.52z"/><path d="m345.47 531.31 5.33-5.16.49-.49a4.52 4.52 0 0 0 .45-.55 3.36 3.36 0 0 0 .34-.61 1.75 1.75 0 0 0 .14-.67 1.67 1.67 0 0 0 -.17-.76 1.71 1.71 0 0 0 -.43-.56 1.79 1.79 0 0 0 -.63-.36 2.19 2.19 0 0 0 -.77-.13 2.08 2.08 0 0 0 -1.44.51 2.11 2.11 0 0 0 -.67 1.35l-2.45-.19a4.26 4.26 0 0 1 .46-1.68 3.76 3.76 0 0 1 1-1.21 4.31 4.31 0 0 1 1.39-.74 5.65 5.65 0 0 1 1.73-.25 6.1 6.1 0 0 1 1.74.24 4.13 4.13 0 0 1 1.4.72 3.35 3.35 0 0 1 .95 1.21 3.9 3.9 0 0 1 .35 1.73 4.16 4.16 0 0 1 -.59 2.24 8.66 8.66 0 0 1 -1.52 1.8l-4.25 3.93h6.36v2.1h-9.19z"/><path d="m356.83 526.91a12.34 12.34 0 0 1 .27-2.78 7.18 7.18 0 0 1 .69-1.94 4.27 4.27 0 0 1 1-1.26 3.91 3.91 0 0 1 1.08-.72 4.31 4.31 0 0 1 1.07-.32 5.1 5.1 0 0 1 1.8 0 4.19 4.19 0 0 1 1.07.32 4.11 4.11 0 0 1 1.09.72 4.63 4.63 0 0 1 1 1.26 7.93 7.93 0 0 1 .69 1.94 15 15 0 0 1 0 5.56 7.93 7.93 0 0 1 -.69 1.94 4.86 4.86 0 0 1 -1 1.27 4.32 4.32 0 0 1 -1.09.71 3.82 3.82 0 0 1 -1.07.32 5.1 5.1 0 0 1 -1.8 0 3.92 3.92 0 0 1 -1.07-.32 4.1 4.1 0 0 1 -1.08-.71 4.46 4.46 0 0 1 -1-1.27 7.18 7.18 0 0 1 -.69-1.94 12.34 12.34 0 0 1 -.27-2.78zm2.33 0a14 14 0 0 0 .09 1.48 7 7 0 0 0 .36 1.61 3.42 3.42 0 0 0 .79 1.28 2.14 2.14 0 0 0 2.8 0 3.42 3.42 0 0 0 .8-1.28 7 7 0 0 0 .36-1.61 12.21 12.21 0 0 0 0-3 6.79 6.79 0 0 0 -.36-1.6 3.27 3.27 0 0 0 -.79-1.28 2.11 2.11 0 0 0 -2.8 0 3.27 3.27 0 0 0 -.79 1.28 6.79 6.79 0 0 0 -.36 1.6 14 14 0 0 0 -.1 1.52z"/><path d="m384.64 531.71h-5.64v3.51h-2v-3.51h-7.38v-1.87h2.59v-4.3h4.79v-2h-3.5a14.74 14.74 0 0 1 -2.23 3 14 14 0 0 0 -1.69-1.26 12.71 12.71 0 0 0 3.45-5.46l2 .5a11.17 11.17 0 0 1 -.54 1.35h9.27v1.89h-4.76v2h4.33v1.81h-4.33v2.49h5.61zm-7.64-1.87v-2.49h-2.83v2.49z"/><path d="m391.77 522.72-2.58 2.39-1.36-1.61 4.17-3.5h2.12v13.74h-2.33z"/><path d="m397.73 526.91a13 13 0 0 1 .26-2.78 7.93 7.93 0 0 1 .69-1.94 4.63 4.63 0 0 1 1-1.26 4.11 4.11 0 0 1 1.09-.72 4.19 4.19 0 0 1 1.07-.32 5.1 5.1 0 0 1 1.8 0 4.31 4.31 0 0 1 1.07.32 3.91 3.91 0 0 1 1.08.72 4.27 4.27 0 0 1 1 1.26 7.18 7.18 0 0 1 .69 1.94 14.45 14.45 0 0 1 0 5.56 7.18 7.18 0 0 1 -.69 1.94 4.46 4.46 0 0 1 -1 1.27 4.1 4.1 0 0 1 -1.08.71 3.92 3.92 0 0 1 -1.07.32 5.1 5.1 0 0 1 -1.8 0 3.82 3.82 0 0 1 -1.07-.32 4.32 4.32 0 0 1 -1.09-.71 4.86 4.86 0 0 1 -1-1.27 7.93 7.93 0 0 1 -.69-1.94 13 13 0 0 1 -.26-2.78zm2.33 0a14 14 0 0 0 .09 1.48 7 7 0 0 0 .36 1.61 3.42 3.42 0 0 0 .79 1.28 2.14 2.14 0 0 0 2.8 0 3.55 3.55 0 0 0 .79-1.28 7 7 0 0 0 .36-1.61 12.21 12.21 0 0 0 0-3 6.79 6.79 0 0 0 -.36-1.6 3.38 3.38 0 0 0 -.79-1.28 2.11 2.11 0 0 0 -2.8 0 3.27 3.27 0 0 0 -.79 1.28 6.79 6.79 0 0 0 -.36 1.6 14 14 0 0 0 -.09 1.52z"/><path d="m423.2 532.71c0 1.18-.28 1.74-1 2.07a10 10 0 0 1 -3.63.38 8.14 8.14 0 0 0 -.82-2c1.15.06 2.53 0 2.89 0s.52-.14.52-.48v-2.38h-7a8.82 8.82 0 0 1 -2.77 4.91 7.53 7.53 0 0 0 -1.51-1.42c2.48-2.11 2.71-5.24 2.71-7.74v-5.39h10.61zm-2.07-4.3v-2h-6.58c0 .63-.05 1.32-.11 2zm-6.58-5.85v2h6.58v-2z"/><path d="m427.79 525.83h7.21v2.77h-7.2z"/><path d="m443 522.72-2.58 2.39-1.35-1.61 4.15-3.46h2.11v13.74h-2.33z"/><path d="m449.62 531.31 5.34-5.16.48-.49a5.83 5.83 0 0 0 .46-.55 5.24 5.24 0 0 0 .34-.61 1.74 1.74 0 0 0 .13-.67 1.67 1.67 0 0 0 -.16-.76 1.74 1.74 0 0 0 -.44-.56 1.79 1.79 0 0 0 -.63-.36 2.19 2.19 0 0 0 -.77-.13 2 2 0 0 0 -1.43.51 2.12 2.12 0 0 0 -.68 1.35l-2.45-.19a4.63 4.63 0 0 1 .46-1.68 3.76 3.76 0 0 1 1-1.21 4.36 4.36 0 0 1 1.4-.74 5.59 5.59 0 0 1 1.72-.25 6.1 6.1 0 0 1 1.74.24 4.09 4.09 0 0 1 1.41.72 3.46 3.46 0 0 1 1 1.21 4.47 4.47 0 0 1 -.25 4 8.66 8.66 0 0 1 -1.52 1.8l-4.25 3.93h6.37v2.1h-9.2z"/><path d="m475.69 532.71c0 1.18-.28 1.74-1 2.07a10 10 0 0 1 -3.62.38 8.14 8.14 0 0 0 -.82-2c1.15.06 2.53 0 2.89 0s.52-.14.52-.48v-2.38h-7a8.88 8.88 0 0 1 -2.77 4.91 7.53 7.53 0 0 0 -1.51-1.42c2.48-2.11 2.71-5.24 2.71-7.74v-5.39h10.66zm-2.07-4.3v-2h-6.62c0 .63-.05 1.32-.11 2zm-6.62-5.85v2h6.58v-2z"/><path d="m485.2 532h-3.33v1.44h-1.8v-12.55h5.13zm-3.33-9.42v2.89h1.51v-2.89zm1.51 7.68v-3.08h-1.51v3.08zm9.78-3.84v1.41h1.57v1.69h-1.57v3.58c0 .93-.19 1.43-.83 1.72a7.16 7.16 0 0 1 -2.73.33 6.92 6.92 0 0 0 -.63-1.84h1.95s.35-.06.35-.29v-3.53h-5.76v-1.69h5.76v-1.41h-5.79v-1.7h3.71v-1.45h-3.19v-1.7h3.15v-1.73h1.91v1.73h3.28v1.7h-3.24v1.45h3.74v1.7zm-5.43 3.3a11.29 11.29 0 0 1 2 2.69l-1.67 1a11.6 11.6 0 0 0 -1.87-2.76z"/><path d="m496.51 534.27a8.82 8.82 0 0 0 2.05-3.2l1.89.46a10.41 10.41 0 0 1 -2.13 3.61zm13.41-3.87h-11.37v-5.69h4.59v-4.83h2v1.45h5.86v1.82h-5.87v1.56h4.79zm-2-3.89h-7.52v2.08h7.53zm-4.82 5a22.25 22.25 0 0 1 .46 3.37l-2 .25a23 23 0 0 0 -.33-3.44zm3.28-.2a17.69 17.69 0 0 1 1.25 3.25l-1.89.49a20.26 20.26 0 0 0 -1.15-3.35zm3.3-.33a19.32 19.32 0 0 1 2.14 3.43l-1.88.72a18.51 18.51 0 0 0 -2-3.53z"/><path d="m521 532.53a15 15 0 0 0 1.51-.26 4.4 4.4 0 0 0 3.69-4.35 4 4 0 0 0 -3.4-4.3 35.46 35.46 0 0 1 -1 4.42c-1 3.28-2.37 5.28-4.15 5.28s-3.31-2-3.31-4.73a7.25 7.25 0 0 1 7.48-7 6.2 6.2 0 0 1 6.56 6.35c0 3.41-2.1 5.84-6.2 6.46zm-1.27-4.92a24.94 24.94 0 0 0 .87-3.94 5.09 5.09 0 0 0 -4.11 4.71c0 1.64.65 2.45 1.26 2.45s1.35-1.02 2-3.22z"/><path d="m544.11 525.69a11.41 11.41 0 0 0 1.49-.1v2.14c-.41 0-1-.05-1.49-.05h-4a10.42 10.42 0 0 1 -1 4.21 7.94 7.94 0 0 1 -3.3 3.15l-1.92-1.39a6.68 6.68 0 0 0 3-2.35 7.13 7.13 0 0 0 1-3.62h-4.51c-.48 0-1.12 0-1.58.06v-2.15a11.76 11.76 0 0 0 1.58.1zm-8.66-2.23c-.56 0-1.26 0-1.75 0v-2.12a11.07 11.07 0 0 0 1.75.14h5.36a11.86 11.86 0 0 0 1.78-.14v2.12c-.56 0-1.2 0-1.78 0zm8.1-.38a22.49 22.49 0 0 0 -1.29-2.28l1.31-.54c.41.61 1 1.64 1.3 2.25zm2-.75a18.72 18.72 0 0 0 -1.31-2.26l1.3-.55a24.67 24.67 0 0 1 1.31 2.23z"/><path d="m549 526.18c.59.05 1.78.1 2.64.1h8.81c.75 0 1.49-.06 1.92-.1v2.58c-.4 0-1.24-.08-1.92-.08h-8.81c-.94 0-2 0-2.64.08z"/><path d="m578.85 523.31a7.08 7.08 0 0 0 -.54 1.17 19.11 19.11 0 0 1 -2.31 4.52c.61.38 1.17.76 1.58 1l-1.5 1.92a17.32 17.32 0 0 0 -1.52-1.16 15.74 15.74 0 0 1 -6.05 4.08l-1.91-1.66a13.81 13.81 0 0 0 6.12-3.67c-1.11-.72-2.23-1.39-3.07-1.87l1.4-1.56c.87.44 2 1.07 3.08 1.72a11.89 11.89 0 0 0 1.71-3.49h-4.71a19.13 19.13 0 0 1 -4.33 4.23l-1.77-1.36a15 15 0 0 0 5.23-5.45 7 7 0 0 0 .74-1.73l2.38.74c-.4.57-.82 1.33-1 1.67h3.37a5.39 5.39 0 0 0 1.42-.18z"/></g><path d="m0 0h590v600h-590z" fill="none"/></svg>